<svg width="18" height="17" viewBox="0 0 18 17" fill="none" xmlns="http://www.w3.org/2000/svg">
<path d="M8.96373 3.94239C6.66765 3.94239 4.81563 5.79442 4.81563 8.09049C4.81563 10.3866 6.66765 12.2386 8.96373 12.2386C11.2598 12.2386 13.1118 10.3866 13.1118 8.09049C13.1118 5.79442 11.2598 3.94239 8.96373 3.94239ZM8.96373 10.7873C7.47995 10.7873 6.26692 9.57789 6.26692 8.09049C6.26692 6.6031 7.47634 5.39369 8.96373 5.39369C10.4511 5.39369 11.6605 6.6031 11.6605 8.09049C11.6605 9.57789 10.4475 10.7873 8.96373 10.7873ZM14.249 3.77271C14.249 4.31063 13.8158 4.74024 13.2815 4.74024C12.7436 4.74024 12.314 4.30702 12.314 3.77271C12.314 3.23841 12.7472 2.80519 13.2815 2.80519C13.8158 2.80519 14.249 3.23841 14.249 3.77271ZM16.9964 4.75468C16.935 3.45863 16.639 2.31059 15.6895 1.36472C14.7436 0.418855 13.5956 0.12282 12.2995 0.0578369C10.9638 -0.0179769 6.96008 -0.0179769 5.62431 0.0578369C4.33187 0.11921 3.18383 0.415245 2.23435 1.36111C1.28487 2.30698 0.992449 3.45502 0.927466 4.75107C0.851652 6.08684 0.851652 10.0905 0.927466 11.4263C0.988839 12.7224 1.28487 13.8704 2.23435 14.8163C3.18383 15.7621 4.32826 16.0582 5.62431 16.1231C6.96008 16.199 10.9638 16.199 12.2995 16.1231C13.5956 16.0618 14.7436 15.7657 15.6895 14.8163C16.6354 13.8704 16.9314 12.7224 16.9964 11.4263C17.0722 10.0905 17.0722 6.09045 16.9964 4.75468ZM15.2707 12.8595C14.9891 13.5671 14.444 14.1123 13.7328 14.3975C12.6678 14.8199 10.1406 14.7224 8.96373 14.7224C7.78681 14.7224 5.25607 14.8163 4.19468 14.3975C3.48708 14.1159 2.94195 13.5707 2.65674 12.8595C2.23435 11.7945 2.33183 9.26741 2.33183 8.09049C2.33183 6.91357 2.23796 4.38283 2.65674 3.32144C2.93834 2.61385 3.48347 2.06871 4.19468 1.7835C5.25968 1.36111 7.78681 1.45859 8.96373 1.45859C10.1406 1.45859 12.6714 1.36472 13.7328 1.7835C14.4404 2.0651 14.9855 2.61024 15.2707 3.32144C15.6931 4.38645 15.5956 6.91357 15.5956 8.09049C15.5956 9.26741 15.6931 11.7981 15.2707 12.8595Z" fill="#A8A8A7"/>
</svg>
