<svg width="17" height="17" viewBox="0 0 17 17" fill="none" xmlns="http://www.w3.org/2000/svg">
<path d="M4.40539 16.1772H1.05078V5.37676H4.40539V16.1772ZM2.72628 3.90348C1.65382 3.90348 0.783569 3.01517 0.783569 1.94271C0.783569 0.870248 1.65382 0 2.72628 0C3.79874 0 4.66899 0.870248 4.66899 1.94271C4.66899 3.01517 3.79874 3.90348 2.72628 3.90348ZM16.9572 16.1772H13.6098V10.9196C13.6098 9.66661 13.5845 8.05972 11.8657 8.05972C10.1216 8.05972 9.85437 9.42107 9.85437 10.8294V16.1772H6.50337V5.37676H9.72076V6.85004H9.76771C10.2155 6.00146 11.3096 5.10594 12.9418 5.10594C16.3361 5.10594 16.9608 7.34114 16.9608 10.2444V16.1772H16.9572Z" fill="#A8A8A7"/>
</svg>
