<svg width="1920" height="1225" viewBox="0 0 1920 1225" fill="none" xmlns="http://www.w3.org/2000/svg">
<g opacity="0.6" clip-path="url(#clip0_0_9)">
<path d="M2200.07 713.6C2191.09 713.6 2181.93 712.057 2172.52 708.615C2127.48 692.143 2086.1 651.303 2046.08 611.81C2026.42 592.399 2007.84 574.066 1988.79 558.34C1866.6 457.473 1725.56 406.913 1567.43 406.913C1474.35 406.913 1375.37 424.416 1270.75 459.489C1191.73 485.98 1113.13 521.655 1037.12 556.163C987.434 578.719 936.051 602.041 885.009 622.595C830.104 644.702 785.131 657.825 743.485 663.894C691.492 671.471 644.543 668.01 599.951 653.314C525.01 628.62 454.597 577.425 386.496 527.919C368.392 514.756 349.674 501.15 331.254 488.329C237.049 422.751 134.98 359.453 26.9113 340.431C1.09528 335.886 -41.5898 342.145 -84.4848 356.767C-121.516 369.388 -176.08 393.926 -225.726 439.15C-279.256 487.899 -340.742 574.862 -329.722 712.301L-330.693 712.379C-335.39 653.798 -327.385 599.463 -306.901 550.88C-289.134 508.741 -262.045 470.909 -226.38 438.423C-176.616 393.091 -121.921 368.494 -84.8018 355.84C-41.7606 341.173 1.10992 334.9 27.0771 339.47C135.332 358.525 237.512 421.887 331.805 487.513C350.235 500.339 368.958 513.951 387.062 527.118C455.099 576.585 525.454 627.731 600.248 652.377C701.112 685.615 800.61 655.511 884.639 621.677C935.661 601.133 987.034 577.815 1036.71 555.264C1112.75 520.752 1191.37 485.063 1270.43 458.557C1333.61 437.378 1395.34 422.35 1453.92 413.889C1517.45 404.716 1579.24 402.982 1637.58 408.734C1700.19 414.905 1760.69 429.884 1817.42 453.25C1877.8 478.12 1935.66 513.223 1989.4 557.583C2008.49 573.338 2027.08 591.686 2046.76 611.112C2086.7 650.531 2128.01 691.298 2172.85 707.697C2217.9 724.175 2257.46 696.59 2297.38 664.338L2298 665.1C2266.15 690.829 2234.51 713.6 2200.06 713.605L2200.07 713.6Z" fill="url(#paint0_linear_0_9)"/>
<path d="M2191.25 704.622C2181.53 704.622 2171.96 703.108 2162.47 700.086C2110.99 683.75 2063.56 642.422 2017.7 602.456C2000.42 587.394 1984.09 573.163 1967.99 560.684C1773.91 410.223 1545.73 381.349 1270.42 472.408C1194.88 497.376 1119.68 530.633 1046.95 562.793C997.337 584.733 946.032 607.421 895.069 627.282C841.768 648.08 798.073 660.369 757.569 665.954C707.083 672.916 661.481 669.406 618.157 655.228C543.284 630.836 472.822 580.359 404.682 531.542C387.403 519.16 369.529 506.359 351.948 494.251C334.552 482.265 319.014 471.822 304.453 462.311C236.371 417.868 146.074 364.784 51.3272 348.741C24.6478 344.225 -17.6617 351.006 -61.8445 366.893C-97.7684 379.807 -151.435 404.462 -203.062 448.563C-242.595 482.338 -273.475 519.824 -294.832 559.985C-318.682 604.824 -329.722 651.981 -328.575 704.153L-329.605 704.177C-330.751 651.83 -319.677 604.502 -295.74 559.502C-274.319 519.224 -243.361 481.635 -203.725 447.782C-182.485 429.64 -158.879 413.162 -133.56 398.808C-110.462 385.714 -86.4507 374.651 -62.186 365.926C-17.8422 349.986 24.6624 343.18 51.5077 347.73C92.6757 354.702 135.029 368.651 180.983 390.367C218.409 408.055 257.821 430.645 305.018 461.457C319.59 470.968 335.132 481.421 352.533 493.411C370.124 505.524 387.993 518.33 405.282 530.712C473.364 579.48 543.758 629.914 618.479 654.256C716.552 686.352 813.147 658.152 894.698 626.33C945.637 606.479 996.932 583.796 1046.54 561.86C1119.29 529.691 1194.51 496.424 1270.1 471.441C1331.32 451.195 1391.18 436.768 1448.03 428.57C1509.45 419.714 1569.31 417.829 1625.96 422.98C1686.54 428.487 1745.29 442.197 1800.59 463.732C1859.27 486.591 1915.81 518.94 1968.62 559.878C1984.74 572.377 2001.08 586.613 2018.38 601.685C2064.16 641.582 2111.5 682.837 2162.78 699.11C2211.96 714.762 2255.61 686.128 2292.66 658.06L2293.28 658.88C2275.28 672.521 2253.86 687.651 2231.5 696.444C2217.63 701.902 2204.29 704.626 2191.24 704.626L2191.25 704.622Z" fill="url(#paint1_linear_0_9)"/>
<path d="M-327.434 696.014L-328.517 695.956C-326.117 650.458 -312.204 609.96 -284.739 568.5C-260.318 531.639 -226.985 495.555 -185.675 461.252C-143.4 426.149 -92.3827 396.162 -42.0191 376.814C4.52963 358.93 47.5172 351.338 75.9187 355.981C167.46 370.945 253.826 420.983 326.234 467.96C340.557 477.251 355.938 487.499 373.246 499.299C389.94 510.675 406.911 522.646 423.317 534.227C491.491 582.331 561.988 632.076 636.689 656.126C731.982 687.085 825.665 660.779 904.742 630.968C955.677 611.82 1006.98 589.767 1056.58 568.437C1125.97 538.606 1197.72 507.76 1269.75 484.306C1329 464.992 1387.01 451.165 1442.17 443.222C1501.49 434.673 1559.44 432.642 1614.41 437.183C1672.99 442.021 1729.99 454.466 1783.85 474.175C1840.83 495.022 1896 524.628 1947.84 562.158C1960.45 571.293 1973.53 581.404 1987.39 592.106C2037.28 630.651 2093.83 674.342 2152.71 690.507C2203.55 704.543 2247.75 680.181 2287.95 651.762L2288.57 652.645C2271.81 664.499 2249.46 679.21 2225.24 687.807C2199.81 696.834 2175.99 698.06 2152.42 691.547C2093.33 675.328 2036.69 631.569 1986.72 592.96C1972.88 582.263 1959.8 572.157 1947.19 563.032C1755.96 424.552 1534.48 399.14 1270.08 485.331C1198.1 508.766 1126.37 539.602 1057.01 569.428C1007.39 590.763 956.077 612.821 905.123 631.979C853.427 651.469 811.015 662.922 771.648 668.024C722.669 674.371 678.418 670.817 636.358 657.152C561.5 633.053 490.935 583.259 422.693 535.106C406.287 523.53 389.325 511.559 372.637 500.188C355.333 488.392 339.962 478.149 325.644 468.863C253.328 421.95 167.084 371.98 75.7431 357.046C47.5221 352.432 4.74426 360.004 -41.6338 377.819C-91.89 397.124 -142.8 427.047 -184.988 462.082C-226.214 496.316 -259.474 532.323 -283.841 569.096C-311.189 610.39 -325.044 650.717 -327.434 696.014Z" fill="url(#paint2_linear_0_9)"/>
<path d="M-326.292 687.89L-327.419 687.719C-321.629 649.584 -305.067 615.589 -273.719 577.493C-246.366 544.255 -209.677 508.712 -167.616 474.722C-123.189 438.818 -71.4255 407.914 -21.8571 387.696C26.8918 367.816 70.2892 359.482 100.34 364.237C140.132 370.535 181.407 383.986 226.531 405.355C262.26 422.277 299.555 443.593 347.465 474.463C361.499 483.505 376.71 493.553 393.974 505.192C409.707 515.791 425.703 526.903 441.167 537.649C509.502 585.129 580.164 634.225 654.915 657.996C747.436 687.817 838.207 663.411 914.801 635.611C965.819 617.171 1017.21 595.743 1066.91 575.018C1132.85 547.521 1201.03 519.087 1269.4 497.185C1326.68 478.804 1382.85 465.578 1436.34 457.873C1493.58 449.632 1549.64 447.445 1602.96 451.37C1659.54 455.535 1714.8 466.715 1767.22 484.594C1822.47 503.444 1876.25 530.311 1927.03 564.453C1935.25 569.974 1943.77 575.838 1952.78 582.048C2006.95 619.353 2074.36 665.783 2142.63 681.924C2197.92 695.101 2246.81 669.372 2283.23 645.483L2283.86 646.435C2268.53 656.488 2245.14 670.817 2218.96 679.195C2192.34 687.714 2167.29 688.969 2142.37 683.032C2073.9 666.843 2006.39 620.349 1952.14 582.99C1943.13 576.785 1934.62 570.922 1926.41 565.4C1812.11 488.563 1687.99 450.277 1551.39 450.277C1462.99 450.277 1369.38 466.295 1269.75 498.269C1201.42 520.156 1133.26 548.58 1067.35 576.067C1017.64 596.797 966.233 618.235 915.187 636.68C865.101 654.862 823.967 665.481 785.736 670.099C738.27 675.831 695.366 672.228 654.568 659.08C579.652 635.255 508.922 586.11 440.518 538.582C425.054 527.836 409.068 516.729 393.34 506.134C376.086 494.505 360.88 484.457 346.85 475.42C274.612 428.868 188.812 379.392 100.169 365.365C70.3185 360.639 27.1357 368.948 -21.4229 388.751C-70.8937 408.929 -122.555 439.775 -166.894 475.611C-208.896 509.557 -245.532 545.041 -272.831 578.221C-304.038 616.151 -320.526 649.975 -326.287 687.895L-326.292 687.89Z" fill="url(#paint3_linear_0_9)"/>
<path d="M-325.165 679.795L-326.312 679.463C-315.96 643.76 -293.388 616.473 -262.689 586.486C-230.858 555.396 -191.734 521.406 -149.556 488.192C-102.656 451.263 -50.1512 419.436 -1.70477 398.569C49.2442 376.628 92.9733 367.606 124.765 372.488C210.818 385.695 292.857 432.427 368.69 480.962C382.618 489.867 397.233 499.436 414.692 511.075C429.161 520.713 443.874 530.76 458.104 540.481C526.913 587.482 598.068 636.08 673.135 659.861C763.271 688.413 850.959 665.969 924.851 640.244C976.058 622.527 1027.65 601.714 1077.54 581.584C1139.93 556.417 1204.43 530.394 1269.05 510.05C1324.36 492.596 1378.69 479.961 1430.55 472.496C1485.73 464.548 1539.93 462.194 1591.61 465.5C1646.21 468.985 1699.74 478.896 1750.7 494.949C1804.22 511.808 1856.55 535.96 1906.23 566.733L1912.64 570.707C1971.35 607.118 2051.76 656.986 2132.55 673.326C2192.51 685.586 2244.57 659.715 2278.52 639.19L2279.13 640.21C2245.01 660.838 2192.68 686.836 2132.31 674.493C2051.32 658.113 1970.8 608.178 1912.01 571.722L1905.6 567.748C1720.4 453.045 1512.3 434.546 1269.4 511.192C1204.83 531.517 1140.34 557.535 1077.98 582.693C1028.08 602.827 976.468 623.645 925.231 641.377C876.887 658.206 837.041 667.966 799.829 672.091C753.93 677.179 712.366 673.551 672.764 661.009C597.526 637.174 526.303 588.522 457.421 541.477C443.196 531.761 428.483 521.714 414.019 512.081C396.565 500.447 381.954 490.882 368.036 481.977C292.31 433.516 210.409 386.852 124.57 373.679C93.0026 368.836 49.493 377.824 -1.2511 399.677C-49.6048 420.5 -102.017 452.274 -148.834 489.139C-190.983 522.329 -230.068 556.285 -261.87 587.345C-292.437 617.195 -314.897 644.346 -325.18 679.8L-325.165 679.795Z" fill="url(#paint4_linear_0_9)"/>
<path d="M778.399 675.982C747.69 675.982 718.85 671.662 690.99 662.932C615.449 639.268 543.806 591.124 474.52 544.567C461.48 535.804 447.992 526.742 434.732 518.018C417.293 506.53 402.843 497.161 389.252 488.524C301.969 433.062 227.712 393.716 149.005 381.984C73.2943 370.696 -45.1461 436.919 -130.736 502.658C-158.937 524.316 -186.91 546.291 -211.594 565.683C-225.477 576.59 -238.585 586.887 -250.884 596.465C-286.188 623.967 -310.355 644.062 -324.058 671.73L-325.175 671.178C-311.35 643.276 -287.085 623.093 -251.649 595.484C-239.356 585.905 -226.243 575.609 -212.365 564.702C-187.68 545.309 -159.703 523.33 -131.497 501.667C-80.9772 462.863 -29.1306 430.977 18.4328 409.451C43.8 397.968 67.5232 389.664 88.9438 384.767C111.774 379.548 132.048 378.195 149.191 380.749C187.666 386.485 227.863 399.462 272.08 420.427C314.878 440.712 355.665 465.7 389.92 487.47C403.516 496.106 417.976 505.48 435.42 516.973C448.684 525.702 462.173 534.764 475.218 543.532C544.431 590.04 615.996 638.13 691.365 661.741C779.341 689.301 867.735 667.214 934.915 644.892C986.449 627.907 1038.37 607.695 1088.59 588.156C1147.29 565.312 1207.99 541.692 1268.72 522.934C1322.05 506.413 1374.57 494.358 1424.81 487.118C1477.97 479.453 1530.32 476.919 1580.4 479.585C1633.04 482.387 1684.83 491.024 1734.33 505.256C1786.1 520.137 1836.94 541.594 1885.45 569.027C1945.44 602.954 2035.28 649.784 2122.49 664.739C2170.5 673.082 2220 662.669 2273.82 632.902L2274.43 633.995C2220.35 663.904 2170.58 674.361 2122.28 665.969C2034.88 650.98 1944.91 604.082 1884.84 570.111C1777.97 509.669 1664.38 479.531 1541.78 479.531C1455.61 479.531 1365 494.412 1269.09 524.125C1208.4 542.868 1147.72 566.484 1089.04 589.318C1038.81 608.866 986.873 629.084 935.31 646.079C888.61 661.594 850.042 670.514 813.938 674.152C801.8 675.372 789.966 675.987 778.404 675.987L778.399 675.982Z" fill="url(#paint5_linear_0_9)"/>
<path d="M796.146 677.672C765.564 677.672 736.89 673.429 709.196 664.856C633.231 641.338 561.051 593.634 491.248 547.497C479.505 539.739 467.363 531.712 455.431 523.955C437.938 512.569 423.644 503.391 410.453 495.076C340.328 450.838 258.396 402.611 173.426 390.298C138.654 385.26 93.466 395.757 39.1169 421.501C-6.83188 443.271 -57.8979 475.127 -112.657 516.182C-155.991 548.673 -201.403 581.99 -239.917 605.585C-247.288 610.102 -254.254 614.247 -260.996 618.25C-287.72 634.137 -308.828 646.689 -322.995 663.689L-323.995 662.854C-309.682 645.683 -288.49 633.082 -261.66 617.127C-254.923 613.124 -247.957 608.984 -240.595 604.472C-202.125 580.906 -156.742 547.609 -113.433 515.137C-58.6004 474.029 -7.46118 442.128 38.5656 420.319C93.1489 394.463 138.585 383.927 173.616 389.005C258.84 401.357 340.913 449.666 411.151 493.973C424.351 502.292 438.65 511.476 456.148 522.861C468.09 530.624 480.232 538.65 491.974 546.408C561.7 592.491 633.801 640.147 709.591 663.611C794.893 690.024 880.195 669.958 944.978 649.53C996.986 633.292 1049.4 613.675 1100.1 594.708C1154.96 574.178 1211.69 552.95 1268.38 535.799C1319.75 520.2 1370.46 508.722 1419.13 501.687C1470.28 494.285 1520.81 491.556 1569.29 493.572C1620 495.682 1670.06 503.039 1718.08 515.45C1768.08 528.373 1817.4 547.165 1864.66 571.307C1904.99 591.91 2009.88 641.421 2112.43 656.146C2162.67 663.474 2215.39 653.539 2269.12 626.608L2269.71 627.77C2215.73 654.823 2162.74 664.802 2112.24 657.43C2070.66 651.459 2024.61 639.263 1975.36 621.179C1928.57 603.999 1889.01 585.202 1864.07 572.46C1761.54 520.088 1653.66 493.958 1538.41 493.958C1452.88 493.958 1363.31 508.336 1268.76 537.044C1212.1 554.185 1155.39 575.403 1100.56 595.924C1049.85 614.901 997.41 634.518 945.374 650.771C900.323 664.978 863.038 673.058 828.031 676.202C817.162 677.179 806.552 677.667 796.161 677.667L796.146 677.672Z" fill="url(#paint6_linear_0_9)"/>
<path d="M814.113 679.39C783.575 679.39 754.998 675.221 727.406 666.784C650.866 643.379 578.003 596.026 507.541 550.231C497.243 543.537 486.594 536.619 476.125 529.896C458.226 518.389 444.509 509.674 431.649 501.628C358.577 455.882 280.334 410.242 197.842 398.608C112.565 386.573 -9.89059 467.667 -94.5779 529.706C-151.235 571.21 -193.934 598.218 -228.965 614.701C-245.996 622.712 -261.567 628.752 -275.309 634.078C-293.735 641.221 -309.653 647.387 -322.004 655.658L-322.76 654.53C-310.282 646.176 -294.305 639.981 -275.802 632.809C-262.079 627.492 -246.532 621.462 -229.546 613.47C-194.598 597.022 -151.966 570.057 -95.3828 528.607C-35.2919 484.584 15.101 452.718 58.674 431.192C85.368 418 110.13 408.416 132.273 402.694C156.718 396.382 178.841 394.551 198.028 397.261C280.783 408.934 359.172 454.651 432.367 500.476C445.231 508.522 458.953 517.246 476.857 528.754C487.325 535.477 497.975 542.4 508.278 549.093C578.662 594.835 651.441 642.139 727.801 665.486C810.44 690.756 892.644 672.716 955.028 654.173C1007.71 638.702 1060.82 619.666 1112.18 601.255C1163.01 583.034 1215.57 564.194 1268.02 548.678C1317.43 534.002 1366.36 523.085 1413.46 516.236C1462.64 509.078 1511.37 506.129 1558.28 507.477C1607.08 508.873 1655.42 514.952 1701.93 525.546C1750.16 536.531 1797.91 552.696 1843.83 573.592C1903.28 600.645 2006.66 636.251 2102.34 647.558C2168.4 655.516 2226.94 637.139 2264.41 620.32L2264.96 621.56C2227.34 638.448 2168.55 656.903 2102.18 648.906C2006.35 637.579 1902.81 601.924 1843.27 574.827C1668.26 495.188 1480.22 487.059 1268.41 549.982C1215.99 565.488 1163.45 584.323 1112.64 602.534C1061.26 620.95 1008.13 639.995 955.413 655.477C912.016 668.376 876.009 675.616 842.1 678.272C832.578 679.019 823.255 679.39 814.113 679.39Z" fill="url(#paint7_linear_0_9)"/>
<path d="M832.353 681.133C801.751 681.133 773.189 677.027 745.617 668.708C668.32 645.381 594.604 598.272 523.318 552.716C514.634 547.165 505.653 541.428 496.823 535.833C483.779 527.558 468.354 517.798 452.85 508.175C380.071 462.966 302.316 417.908 222.258 406.913C184.046 401.664 137.327 413.572 79.4262 443.315C28.2869 469.586 -25.7403 506.862 -76.5039 543.225C-133.751 584.231 -180.041 610.59 -218.023 623.806C-244.244 632.931 -266.972 636.905 -287.027 640.41C-299.959 642.671 -311.131 644.629 -321.068 647.587L-321.468 646.235C-311.453 643.252 -300.247 641.294 -287.271 639.024C-267.27 635.523 -244.6 631.559 -218.487 622.473C-180.636 609.306 -134.463 583.005 -77.3283 542.077C-26.5208 505.68 27.5552 468.375 78.7773 442.06C136.941 412.176 183.934 400.224 222.443 405.512C259.001 410.535 297.574 422.834 340.371 443.114C376.812 460.383 411.985 481.132 453.587 506.974C469.1 516.602 484.525 526.361 497.575 534.637C506.404 540.232 515.385 545.973 524.074 551.524C595.277 597.027 668.906 644.082 746.017 667.351C826.001 691.493 905.108 675.465 965.082 658.812C1018.67 644.136 1072.72 625.656 1124.99 607.782C1171.55 591.862 1219.69 575.394 1267.67 561.548C1315.13 547.785 1362.29 537.415 1407.84 530.726C1455.09 523.789 1502.04 520.6 1547.4 521.245C1594.31 521.914 1640.92 526.708 1685.93 535.496C1732.38 544.562 1778.49 558.145 1823.01 575.872C1882.62 599.605 1992.3 629.469 2092.26 638.965C2165.29 646.064 2228.51 626.389 2259.71 614.027L2260.22 615.34C2236.9 624.582 2212.46 631.554 2187.58 636.07C2155.24 641.939 2123.12 643.384 2092.12 640.371C1992.03 630.866 1882.19 600.952 1822.49 577.186C1651.31 509.03 1469.95 504.362 1268.06 562.91C1220.11 576.746 1171.99 593.204 1125.44 609.12C1073.16 626.999 1019.09 645.493 965.453 660.179C923.709 671.774 888.98 678.179 856.169 680.337C848.086 680.87 840.144 681.138 832.338 681.138L832.353 681.133Z" fill="url(#paint8_linear_0_9)"/>
<path d="M850.73 682.876C819.982 682.876 791.395 678.838 763.828 670.631C685.555 647.338 610.786 600.352 538.479 554.918C531.494 550.528 524.508 546.139 517.527 541.775C503.712 533.128 488.979 523.915 474.056 514.727C398.579 468.224 324.4 425.621 246.684 415.222C207.882 410.032 161.201 422.028 103.979 451.907C53.342 478.345 0.983154 515.079 -49.6536 550.607L-58.42 556.753C-117.428 598.116 -166.055 623.03 -207.072 632.911C-241.527 641.216 -271.797 640.396 -296.12 639.742C-304.638 639.512 -312.682 639.297 -320.131 639.468L-320.165 638.003C-312.682 637.833 -304.618 638.047 -296.081 638.277C-270.582 638.965 -241.683 639.742 -207.418 631.486C-166.582 621.643 -118.121 596.807 -59.2639 555.552L-50.4976 549.406C0.178223 513.853 52.5809 477.09 103.296 450.609C160.796 420.588 207.76 408.538 246.869 413.772C324.868 424.21 399.204 466.891 474.818 513.482C489.745 522.67 504.482 531.883 518.298 540.535C525.279 544.899 532.264 549.288 539.255 553.678C611.478 599.063 686.165 645.991 764.242 669.225C841.178 692.123 917.367 678.17 975.151 663.455C1029.64 649.579 1084.65 631.749 1137.85 614.51C1180.12 600.806 1223.84 586.642 1267.34 574.427C1359.73 548.336 1450.34 535.032 1536.63 534.886C1537.12 534.886 1537.6 534.886 1538.08 534.886C1582.66 534.886 1627.05 538.386 1670.06 545.3C1714.71 552.477 1759.17 563.53 1802.2 578.157C1861.16 598.199 1976.26 622.571 2082.19 630.377C2158.38 636.148 2223.17 618.67 2255.02 607.738L2255.49 609.125C2223.54 620.095 2158.53 637.632 2082.08 631.842C1976.03 624.031 1860.77 599.619 1801.73 579.548C1637 523.544 1457.33 522.299 1267.72 575.838C1224.26 588.044 1180.55 602.207 1138.29 615.906C1085.07 633.155 1030.04 650.99 975.502 664.88C935.251 675.128 901.801 680.684 870.233 682.354C863.628 682.705 857.12 682.881 850.715 682.881L850.73 682.876Z" fill="url(#paint9_linear_0_9)"/>
<path d="M870.262 684.673C841.773 684.673 812.015 681.348 782.038 672.555C702.527 649.242 626.44 602.222 552.861 556.748C547.982 553.731 543.104 550.719 538.226 547.711L536.196 546.462C522.796 538.191 508.941 529.637 495.253 521.279C417.249 473.619 346.538 433.365 271.095 423.532C186.549 412.508 87.5388 481.401 -8.21735 548.019C-18.7789 555.367 -29.6965 562.964 -40.3458 570.272C-101.276 612.093 -152.235 635.557 -196.13 642.002C-237.654 648.1 -272.27 640.923 -302.818 634.586C-308.526 633.404 -313.916 632.286 -319.165 631.295L-318.882 629.801C-313.614 630.792 -308.218 631.91 -302.506 633.097C-272.085 639.405 -237.6 646.557 -196.344 640.498C-152.683 634.088 -101.934 610.702 -41.1946 569.018C-30.5502 561.709 -19.6326 554.117 -9.07104 546.769C86.9193 479.985 186.178 410.931 271.304 422.023C347.04 431.895 417.897 472.227 496.053 519.98C509.746 528.339 523.6 536.892 537.001 545.168L539.031 546.418C543.909 549.425 548.787 552.437 553.665 555.455C627.162 600.874 703.156 647.836 782.473 671.095C856.774 692.88 929.856 680.933 985.229 668.093C1041.44 655.052 1098.21 637.676 1153.11 620.872C1190.32 609.481 1228.79 597.706 1267.01 587.292C1355.3 563.09 1442.42 549.987 1525.97 548.351C1613.4 546.637 1699.34 557.432 1781.4 580.432C1837.68 596.212 1955.62 615.477 2072.13 621.78C2150.96 626.188 2217.63 610.927 2250.35 601.436L2250.77 602.895C2217.96 612.411 2151.11 627.717 2072.06 623.293C1955.43 616.985 1837.36 597.691 1780.99 581.892C1620.71 536.961 1447.92 539.27 1267.41 588.751C1229.22 599.16 1190.76 610.931 1153.56 622.317C1098.64 639.126 1041.84 656.512 985.581 669.562C952.34 677.271 912.723 684.658 870.277 684.658L870.262 684.673Z" fill="url(#paint10_linear_0_9)"/>
<path d="M889.971 686.601C861.179 686.601 830.88 683.325 800.249 674.484C719.157 651.083 641.436 603.823 566.276 558.125L558.929 553.658C555.129 551.349 551.329 549.03 547.528 546.715C537.357 540.52 526.84 534.114 516.464 527.836C449.948 487.548 374.554 441.884 295.525 431.851C211.692 421.208 117.599 486.757 26.6088 550.153C10.5494 561.343 -6.06116 572.914 -22.2571 583.806C-85.1921 626.13 -138.483 648.144 -185.178 651.103C-232.673 654.115 -272.426 639.693 -307.501 626.97C-311.189 625.632 -314.677 624.367 -318.17 623.122L-317.643 621.638C-314.145 622.883 -310.657 624.148 -306.969 625.485C-272.041 638.155 -232.449 652.518 -185.285 649.526C-138.878 646.582 -85.8409 624.655 -23.145 582.492C-6.95877 571.605 9.64697 560.039 25.7014 548.854C71.0843 517.237 118.014 484.54 163.426 461.574C187.924 449.183 209.94 440.59 230.741 435.303C254.152 429.351 275.407 427.706 295.715 430.284C330.4 434.688 367.348 446.332 408.673 465.88C444.728 482.939 479.184 503.42 517.268 526.488C527.645 532.767 538.167 539.177 548.338 545.373C552.143 547.687 555.944 550.006 559.739 552.315L567.086 556.783C642.158 602.432 719.791 649.633 800.678 672.975C872.389 693.671 942.349 683.721 995.283 672.741C1053.81 660.598 1112.95 643.594 1170.14 627.15C1201.69 618.079 1234.31 608.7 1266.65 600.176C1350.95 577.82 1434.62 564.858 1515.35 561.66C1599.04 558.34 1681.53 565.429 1760.55 582.732C1822.71 596.343 1949.5 609.159 2062.04 613.207C2142.56 616.238 2211.63 603.203 2245.64 595.162L2246 596.695C2211.92 604.751 2142.68 617.82 2061.98 614.779C1949.37 610.731 1822.45 597.901 1760.21 584.27C1604.85 550.25 1438.93 556.114 1267.05 601.699C1234.72 610.219 1202.11 619.593 1170.57 628.664C1113.35 645.117 1054.19 662.131 995.6 674.283C965.072 680.616 928.89 686.606 889.961 686.606L889.971 686.601Z" fill="url(#paint11_linear_0_9)"/>
<path d="M909.991 688.579C877.273 688.579 847.305 684.595 818.465 676.412C735.373 652.841 656.198 605.439 579.628 559.6C572.486 555.318 565.339 551.017 558.183 546.715C551.348 542.605 544.509 538.494 537.665 534.388C471.466 494.651 396.438 449.618 319.946 440.161C235.908 429.771 145.196 493.406 57.469 554.947C37.2241 569.149 16.2913 583.835 -4.18298 597.334C-34.4577 617.298 -63.308 632.672 -89.9191 643.027C-119.935 654.706 -148.293 660.481 -174.236 660.193C-226.809 659.607 -271.314 637.598 -310.584 618.182C-312.789 617.093 -314.98 616.009 -317.15 614.94L-316.433 613.48C-314.262 614.549 -312.072 615.633 -309.867 616.722C-270.758 636.065 -226.424 657.986 -174.221 658.567C-125.121 659.114 -69.7913 638.638 -5.08545 595.977C15.3644 582.492 36.2874 567.816 56.5226 553.619C100.393 522.841 145.757 491.019 189.895 468.766C213.692 456.765 235.205 448.451 255.665 443.344C278.676 437.602 299.76 436.03 320.127 438.55C354.197 442.763 390.603 454.187 431.425 473.487C468.661 491.087 505.756 513.355 538.484 532.996C545.333 537.102 552.173 541.218 559.007 545.324C566.164 549.625 573.31 553.927 580.452 558.208C656.93 603.994 736.012 651.337 818.894 674.85C872.872 690.165 930.378 690.946 1005.35 677.379C1067.02 666.223 1129.36 649.467 1189.65 633.263C1214.72 626.525 1240.65 619.558 1266.31 613.045C1371.9 586.066 1475.51 572.538 1575.91 572.538C1631.57 572.538 1686.22 576.692 1739.71 585.012C1798.48 594.151 1926.88 602.212 2051.97 604.609C2128.22 606.176 2196.83 596.915 2240.96 588.864L2241.26 590.465C2197.05 598.531 2128.31 607.812 2051.94 606.235C1926.8 603.838 1798.3 595.767 1739.47 586.618C1589.69 563.32 1430.63 572.738 1266.72 614.622C1241.07 621.13 1215.15 628.097 1190.08 634.835C1129.76 651.049 1067.39 667.809 1005.65 678.98C970.912 685.263 940.432 688.403 912.47 688.574C911.64 688.579 910.811 688.583 909.987 688.583L909.991 688.579Z" fill="url(#paint12_linear_0_9)"/>
<path d="M931.695 690.688C929.968 690.688 928.251 690.678 926.543 690.653C894.41 690.258 865.013 686.23 836.675 678.336C799.756 668.054 760.53 652.387 716.757 630.436C677.565 610.785 639.319 588.527 600.326 565.541C589.404 559.092 578.277 552.481 567.52 546.086L557.841 540.334C489.257 499.548 418.332 457.375 344.357 448.47C259.523 438.257 171.177 500.866 85.7387 561.416C62.1717 578.118 37.8045 595.386 13.8911 610.853C-17.3642 631.071 -47.2877 646.254 -75.0403 655.98C-106.286 666.931 -135.975 671.403 -163.289 669.269C-220.267 664.822 -269.226 635.152 -312.428 608.974L-316.111 606.743L-315.243 605.302L-311.56 607.533C-268.524 633.614 -219.741 663.171 -163.162 667.59C-111.393 671.632 -53.7758 652.611 12.974 609.438C36.8581 593.99 61.2106 576.731 84.7631 560.039C127.551 529.716 171.797 498.362 215.141 476.48C238.503 464.684 259.733 456.516 280.051 451.497C302.887 445.858 323.985 444.32 344.552 446.796C418.878 455.74 489.955 498.01 558.695 538.884L568.374 544.636C579.13 551.031 590.253 557.642 601.175 564.091C683.706 612.743 758.427 654.798 837.119 676.715C889.185 691.215 944.178 692.85 1015.43 682.012C1081.41 671.979 1148.15 655.277 1212.7 639.122C1230.14 634.757 1248.17 630.246 1265.98 625.915C1423.12 587.428 1575.49 574.437 1718.88 587.297C1783.68 593.106 1928.22 595.611 2041.9 596.021C2043.68 596.031 2045.46 596.036 2047.24 596.036C2131.22 596.036 2204.59 586.637 2236.29 582.58L2236.51 584.25C2204.1 588.4 2128.2 598.121 2041.89 597.71C1928.19 597.305 1783.58 594.796 1718.73 588.981C1575.53 576.136 1423.34 589.118 1266.38 627.556C1248.57 631.886 1230.54 636.397 1213.11 640.762C1148.53 656.922 1081.75 673.639 1015.68 683.682C984.732 688.388 957.189 690.688 931.685 690.688H931.695Z" fill="url(#paint13_linear_0_9)"/>
<path d="M955.247 692.938C918.748 692.938 885.946 688.745 854.886 680.264C774.038 658.192 698.132 616.214 621.03 571.483C607.4 563.564 593.877 555.616 580.067 547.492L575.462 544.777C509.019 505.631 440.318 465.153 368.783 456.775C282.754 446.698 196.071 508.878 112.243 569.008C85.9485 587.868 58.7617 607.367 31.975 624.372C-0.275482 644.844 -31.2673 659.832 -60.1469 668.928C-92.6168 679.151 -123.628 682.32 -152.327 678.345C-179.548 674.576 -207.496 664.787 -237.766 648.427C-264.406 634.029 -289.256 616.619 -313.287 599.78L-315.038 598.55L-314.043 597.129L-312.292 598.36C-265.538 631.12 -212.545 668.249 -152.083 676.627C-97.6659 684.165 -37.7652 666.594 31.053 622.908C57.8007 605.927 84.968 586.442 111.238 567.597C153.25 537.464 196.691 506.3 239.566 484.565C262.675 472.852 283.773 464.733 304.082 459.748C326.903 454.143 348.133 452.606 368.992 455.052C440.889 463.473 509.756 504.045 576.35 543.278L580.955 545.993C594.76 554.117 608.283 562.065 621.908 569.979C698.907 614.652 774.706 656.571 855.349 678.585C904.918 692.118 958.994 694.681 1025.52 686.655C1097.57 677.96 1170.51 660.96 1241.05 644.512C1249.24 642.603 1257.44 640.689 1265.65 638.79C1417.68 603.32 1563.16 586.769 1698.04 589.591C1750.25 590.685 1860.94 589.401 1967.99 588.161C1989.43 587.912 2010.85 587.663 2031.84 587.433C2102.32 586.73 2165.84 581.575 2207.86 578.167C2217.01 577.425 2224.9 576.785 2231.64 576.292L2231.76 578.025C2225.03 578.518 2217.14 579.158 2208.01 579.9C2165.95 583.313 2102.4 588.468 2031.86 589.171C2010.87 589.401 1989.44 589.65 1968.01 589.899C1860.94 591.139 1750.24 592.423 1698.01 591.329C1563.26 588.507 1417.93 605.048 1266.05 640.484C1257.84 642.388 1249.64 644.297 1241.45 646.206C1170.87 662.659 1097.88 679.673 1025.74 688.378C1000.63 691.41 977.268 692.934 955.262 692.934L955.247 692.938Z" fill="url(#paint14_linear_0_9)"/>
<path d="M981.434 695.609C942.056 695.609 906.801 691.195 873.097 682.193C790.244 660.057 710.225 616.512 641.729 577.43C626.933 568.978 612.332 560.498 601.268 554.049C598.624 552.506 595.975 550.963 593.326 549.415C528.952 511.832 462.388 472.969 393.199 465.094C305.677 455.13 220.155 517.295 137.449 577.41C108.862 598.189 79.2994 619.676 50.0491 637.906C16.7937 658.631 -15.2714 673.429 -45.2632 681.885C-78.9625 691.381 -111.296 693.251 -141.375 687.431C-170.196 681.856 -199.886 669.494 -232.141 649.638C-260.596 632.12 -287.451 611.122 -313.423 590.817L-313.98 590.377L-312.877 588.966L-312.321 589.401C-259.567 630.646 -205.018 673.292 -141.034 685.669C-83.992 696.703 -21.7986 680.581 49.1076 636.383C78.3042 618.182 107.837 596.714 136.4 575.955C177.861 545.822 220.731 514.659 263.367 492.913C286.349 481.196 307.428 473.067 327.815 468.068C350.723 462.448 372.178 460.891 393.404 463.307C462.968 471.226 529.698 510.187 594.229 547.863C596.878 549.41 599.526 550.953 602.17 552.496C613.234 558.941 627.83 567.421 642.616 575.867C711.015 614.891 790.912 658.377 873.56 680.454C921.811 693.344 973.302 696.79 1035.6 691.293C1114.96 684.6 1194.84 667.102 1265.31 651.659C1337.8 635.675 1407.67 622.634 1472.98 612.904C1544.63 602.231 1613.33 595.157 1677.18 591.881C1746.02 588.351 1894.59 581.96 2021.76 578.841C2073.73 577.605 2122.23 575.028 2161.22 572.957C2189.26 571.468 2211.41 570.292 2226.96 570.004L2226.99 571.796C2211.48 572.079 2189.34 573.255 2161.31 574.744C2122.32 576.814 2073.79 579.397 2021.8 580.632C1894.65 583.752 1746.09 590.138 1677.27 593.673C1553.88 600.005 1419.26 619.544 1265.69 653.412C1195.16 668.864 1115.23 686.377 1035.75 693.08C1016.71 694.759 998.674 695.609 981.429 695.609H981.434Z" fill="url(#paint15_linear_0_9)"/>
<path d="M-85.1091 701.848C-100.627 701.848 -115.76 700.066 -130.419 696.498C-198.081 680.025 -256.455 630.29 -312.911 582.19L-311.716 580.784C-255.425 628.742 -197.217 678.336 -129.985 694.706C-70.3328 709.23 -5.84161 694.554 67.1671 649.853C98.5101 630.661 130.078 607.397 160.606 584.895C201.681 554.625 244.157 523.32 286.73 501.447C309.677 489.662 330.82 481.474 351.357 476.431C374.442 470.763 396.184 469.166 417.819 471.563C485.135 479.009 549.807 516.426 612.347 552.613C616.03 554.747 619.713 556.875 623.386 558.994C638.626 567.782 651.319 575.013 663.33 581.755C734.294 621.55 811.089 661.282 891.771 682.329C937.89 694.359 988.234 698.812 1045.68 695.936C1121.25 692.387 1195.73 678.746 1264.97 664.534C1380.42 640.703 1524.1 611.049 1656.3 594.185C1721.6 585.856 1881.02 575.125 2011.67 570.258C2037.43 569.31 2062.03 568.285 2085.81 567.294C2144.62 564.843 2195.4 562.729 2222.28 563.725L2222.22 565.571C2195.4 564.575 2144.66 566.689 2085.89 569.14C2062.1 570.131 2037.51 571.156 2011.74 572.103C1881.13 576.966 1721.78 587.697 1656.54 596.016C1524.4 612.87 1380.76 642.52 1265.34 666.34C1196.03 680.567 1121.46 694.222 1045.77 697.777C988.132 700.662 937.607 696.19 891.302 684.111C810.415 663.01 733.499 623.22 662.422 583.362C650.407 576.619 637.709 569.384 622.464 560.591C618.786 558.472 615.108 556.338 611.42 554.205C549.046 518.115 484.545 480.796 417.615 473.389C328.39 463.517 243.644 525.976 161.694 586.369C131.131 608.891 99.5346 632.179 68.1232 651.415C33.858 672.399 0.714813 686.997 -30.3795 694.808C-49.0292 699.495 -67.3229 701.839 -85.114 701.839L-85.1091 701.848Z" fill="url(#paint16_linear_0_9)"/>
<path d="M-64.4837 713.244C-83.3285 713.244 -101.705 710.685 -119.462 705.574C-190.315 684.99 -252.093 628.571 -311.838 574.012L-310.56 572.611C-250.976 627.023 -189.363 683.291 -118.935 703.753C-56.7467 721.665 10.0373 708.439 85.2266 663.328C118.292 643.369 151.474 618.582 183.563 594.61C224.463 564.057 266.753 532.464 309.482 510.328C332.517 498.396 353.821 490.091 374.612 484.95C397.979 479.17 420.102 477.495 442.24 479.829C507.575 486.962 570.437 522.998 631.231 557.847C635.699 560.41 640.163 562.968 644.617 565.507C659.037 573.734 671.94 580.979 684.053 587.653C749.554 623.733 827.621 663.42 909.996 684.209C954.681 695.638 1002.37 701.009 1055.79 700.589C1116.98 700.228 1183.35 692.865 1264.64 677.418C1336.94 663.63 1410.37 646.87 1481.39 630.661C1532.15 619.075 1584.63 607.094 1635.45 596.509C1695.72 583.957 1853.13 568.983 2001.61 561.684C2086.3 557.539 2178.19 553.8 2217.63 557.461L2217.46 559.351C2178.14 555.699 2086.33 559.439 2001.71 563.579C1853.31 570.873 1696.02 585.827 1635.83 598.365C1585.04 608.944 1532.56 620.925 1481.81 632.511C1410.78 648.725 1337.33 665.49 1265 679.283C1183.59 694.755 1117.11 702.127 1055.8 702.488C1002.22 702.908 954.379 697.523 909.533 686.05C826.953 665.207 748.749 625.456 683.145 589.318C671.023 582.639 658.115 575.389 643.685 567.157C639.226 564.614 634.767 562.055 630.294 559.492C569.671 524.741 506.98 488.802 442.045 481.713C350.753 472.081 266.338 535.145 184.705 596.129C152.576 620.13 119.36 644.946 86.2119 664.953C50.8784 686.152 16.662 700.535 -15.4909 707.697C-32.0966 711.398 -48.4584 713.248 -64.4788 713.248L-64.4837 713.244Z" fill="url(#paint17_linear_0_9)"/>
<path d="M-43.9704 725C-66.0984 725 -87.68 721.543 -108.501 714.645C-182.104 690.258 -247.488 627.023 -310.716 565.873L-310.755 565.834L-309.399 564.428L-309.36 564.467C-246.288 625.466 -181.065 688.539 -107.886 712.79C-43.0435 734.276 26.0332 722.5 103.286 676.793C138.259 656.102 173.187 629.621 206.964 604.013C247.635 573.177 289.696 541.296 332.508 518.931C355.592 506.872 377.022 498.484 398.018 493.279C421.624 487.431 444.074 485.731 466.656 488.08C529.708 494.642 590.453 529.174 649.197 562.573C654.754 565.732 660.295 568.881 665.832 572.005C742.695 615.365 833.973 662.825 928.202 686.074C984.112 699.871 1040.13 705.715 1096.06 705.715C1254.68 705.715 1412.72 658.743 1566.93 612.914C1582.55 608.271 1598.7 603.471 1614.57 598.809C1672.46 581.789 1809.75 566.63 1918.93 558.116C2054.77 547.526 2170.19 544.802 2212.97 551.178L2212.68 553.111C2170.04 546.759 2054.79 549.489 1919.08 560.068C1810 568.573 1672.86 583.708 1615.12 600.689C1599.26 605.351 1583.11 610.15 1567.49 614.793C1463.41 645.727 1355.78 677.711 1249.13 694.799C1191.66 704.006 1139.19 708.234 1088.76 707.746C1032.07 707.19 979.4 700.726 927.743 687.978C885.775 677.623 842.236 662.141 794.644 640.655C756.739 623.542 715.503 602.27 664.881 573.714C659.344 570.59 653.797 567.436 648.241 564.277C589.672 530.98 529.108 496.551 466.461 490.028C373.339 480.342 289.364 544.006 208.145 605.581C174.324 631.222 139.351 657.737 104.281 678.487C67.9671 699.974 32.6823 714.176 -0.59256 720.704C-15.2324 723.574 -29.716 725.01 -43.9655 725.01L-43.9704 725Z" fill="url(#paint18_linear_0_9)"/>
</g>
<g filter="url(#filter0_f_0_9)">
<ellipse cx="960" cy="612.5" rx="1167" ry="312.5" fill="white"/>
</g>
<defs>
<filter id="filter0_f_0_9" x="-507" y="0" width="2934" height="1225" filterUnits="userSpaceOnUse" color-interpolation-filters="sRGB">
<feFlood flood-opacity="0" result="BackgroundImageFix"/>
<feBlend mode="normal" in="SourceGraphic" in2="BackgroundImageFix" result="shape"/>
<feGaussianBlur stdDeviation="150" result="effect1_foregroundBlur_0_9"/>
</filter>
<linearGradient id="paint0_linear_0_9" x1="-331.997" y1="525.803" x2="2298.14" y2="551.726" gradientUnits="userSpaceOnUse">
<stop stop-color="#173D70"/>
<stop offset="1" stop-color="#108DCD"/>
</linearGradient>
<linearGradient id="paint1_linear_0_9" x1="-329.685" y1="525.485" x2="2293.4" y2="552.517" gradientUnits="userSpaceOnUse">
<stop stop-color="#173D70"/>
<stop offset="1" stop-color="#108DCD"/>
</linearGradient>
<linearGradient id="paint2_linear_0_9" x1="-328.517" y1="525.33" x2="2288.66" y2="553.573" gradientUnits="userSpaceOnUse">
<stop stop-color="#173D70"/>
<stop offset="1" stop-color="#108DCD"/>
</linearGradient>
<linearGradient id="paint3_linear_0_9" x1="-327.419" y1="525.413" x2="2283.92" y2="554.95" gradientUnits="userSpaceOnUse">
<stop stop-color="#173D70"/>
<stop offset="1" stop-color="#108DCD"/>
</linearGradient>
<linearGradient id="paint4_linear_0_9" x1="-326.312" y1="525.499" x2="2279.16" y2="556.462" gradientUnits="userSpaceOnUse">
<stop stop-color="#173D70"/>
<stop offset="1" stop-color="#108DCD"/>
</linearGradient>
<linearGradient id="paint5_linear_0_9" x1="-325.175" y1="527.741" x2="2274.42" y2="559.825" gradientUnits="userSpaceOnUse">
<stop stop-color="#173D70"/>
<stop offset="1" stop-color="#108DCD"/>
</linearGradient>
<linearGradient id="paint6_linear_0_9" x1="-323.995" y1="532.718" x2="2269.69" y2="565.382" gradientUnits="userSpaceOnUse">
<stop stop-color="#173D70"/>
<stop offset="1" stop-color="#108DCD"/>
</linearGradient>
<linearGradient id="paint7_linear_0_9" x1="-322.76" y1="537.718" x2="2264.93" y2="570.984" gradientUnits="userSpaceOnUse">
<stop stop-color="#173D70"/>
<stop offset="1" stop-color="#108DCD"/>
</linearGradient>
<linearGradient id="paint8_linear_0_9" x1="-321.468" y1="542.718" x2="2260.17" y2="576.606" gradientUnits="userSpaceOnUse">
<stop stop-color="#173D70"/>
<stop offset="1" stop-color="#108DCD"/>
</linearGradient>
<linearGradient id="paint9_linear_0_9" x1="-320.165" y1="547.733" x2="2255.42" y2="582.28" gradientUnits="userSpaceOnUse">
<stop stop-color="#173D70"/>
<stop offset="1" stop-color="#108DCD"/>
</linearGradient>
<linearGradient id="paint10_linear_0_9" x1="-319.165" y1="552.758" x2="2250.68" y2="587.994" gradientUnits="userSpaceOnUse">
<stop stop-color="#173D70"/>
<stop offset="1" stop-color="#108DCD"/>
</linearGradient>
<linearGradient id="paint11_linear_0_9" x1="-318.17" y1="557.856" x2="2245.88" y2="593.796" gradientUnits="userSpaceOnUse">
<stop stop-color="#173D70"/>
<stop offset="1" stop-color="#108DCD"/>
</linearGradient>
<linearGradient id="paint12_linear_0_9" x1="-317.15" y1="562.986" x2="2241.12" y2="599.662" gradientUnits="userSpaceOnUse">
<stop stop-color="#173D70"/>
<stop offset="1" stop-color="#108DCD"/>
</linearGradient>
<linearGradient id="paint13_linear_0_9" x1="-316.111" y1="568.17" x2="2236.35" y2="605.599" gradientUnits="userSpaceOnUse">
<stop stop-color="#173D70"/>
<stop offset="1" stop-color="#108DCD"/>
</linearGradient>
<linearGradient id="paint14_linear_0_9" x1="-315.038" y1="573.433" x2="2231.57" y2="611.63" gradientUnits="userSpaceOnUse">
<stop stop-color="#173D70"/>
<stop offset="1" stop-color="#108DCD"/>
</linearGradient>
<linearGradient id="paint15_linear_0_9" x1="-313.98" y1="578.908" x2="2226.78" y2="617.844" gradientUnits="userSpaceOnUse">
<stop stop-color="#173D70"/>
<stop offset="1" stop-color="#108DCD"/>
</linearGradient>
<linearGradient id="paint16_linear_0_9" x1="-312.911" y1="586.167" x2="2222.06" y2="625.267" gradientUnits="userSpaceOnUse">
<stop stop-color="#173D70"/>
<stop offset="1" stop-color="#108DCD"/>
</linearGradient>
<linearGradient id="paint17_linear_0_9" x1="-311.838" y1="596.03" x2="2217.43" y2="634.444" gradientUnits="userSpaceOnUse">
<stop stop-color="#173D70"/>
<stop offset="1" stop-color="#108DCD"/>
</linearGradient>
<linearGradient id="paint18_linear_0_9" x1="-310.755" y1="606.035" x2="2212.79" y2="643.71" gradientUnits="userSpaceOnUse">
<stop stop-color="#173D70"/>
<stop offset="1" stop-color="#108DCD"/>
</linearGradient>
<clipPath id="clip0_0_9">
<rect width="2630" height="387" fill="white" transform="translate(-332 338)"/>
</clipPath>
</defs>
</svg>
