<svg width="321" height="72" viewBox="0 0 321 72" fill="none" xmlns="http://www.w3.org/2000/svg">
<g clip-path="url(#clip0_0_34)">
<mask id="mask0_0_34" style="mask-type:luminance" maskUnits="userSpaceOnUse" x="55" y="44" width="2" height="5">
<path d="M55.5443 46.8118L56.2275 44.8217V48.8019L55.5443 46.8118Z" fill="white"/>
</mask>
<g mask="url(#mask0_0_34)">
<path d="M57.178 10.0989H-0.000228882V69.1484H57.178V10.0989Z" fill="white"/>
</g>
<mask id="mask1_0_34" style="mask-type:luminance" maskUnits="userSpaceOnUse" x="49" y="54" width="8" height="15">
<path d="M52.6039 54.7722L56.2277 60.2376V68.4356L49.9306 62.0197L49.9603 61.9306L52.6039 54.7722Z" fill="white"/>
</mask>
<g mask="url(#mask1_0_34)">
<path d="M57.1782 10.099H-3.05176e-05V69.1485H57.1782V10.099Z" fill="white"/>
</g>
<mask id="mask2_0_34" style="mask-type:luminance" maskUnits="userSpaceOnUse" x="23" y="31" width="19" height="14">
<path d="M41.9701 38.9999L32.7325 44.0197L23.881 34.7821L36.7127 31.1583L41.9701 38.9999Z" fill="white"/>
</mask>
<g mask="url(#mask2_0_34)">
<path d="M57.178 10.0989H-0.000183105V69.1484H57.178V10.0989Z" fill="white"/>
</g>
<mask id="mask3_0_34" style="mask-type:luminance" maskUnits="userSpaceOnUse" x="53" y="48" width="4" height="11">
<path d="M55.0692 48.2079L56.2276 51.7128V58.6039L53.0791 53.8218L55.0692 48.2079Z" fill="white"/>
</mask>
<g mask="url(#mask3_0_34)">
<path d="M57.1781 10.099H-0.00012207V69.1485H57.1781V10.099Z" fill="white"/>
</g>
<mask id="mask4_0_34" style="mask-type:luminance" maskUnits="userSpaceOnUse" x="53" y="38" width="4" height="8">
<path d="M53.673 41.198L56.2274 38.2871V42.1485L55.069 45.4158L53.673 41.198Z" fill="white"/>
</mask>
<g mask="url(#mask4_0_34)">
<path d="M57.1779 10.099H-0.000320435V69.1485H57.1779V10.099Z" fill="white"/>
</g>
<mask id="mask5_0_34" style="mask-type:luminance" maskUnits="userSpaceOnUse" x="33" y="39" width="15" height="15">
<path d="M47.2572 46.8118L41.5542 53.1979L41.5245 53.2276L36.8612 48.3266L33.4453 44.7029L42.5641 39.8019L47.2572 46.8118Z" fill="white"/>
</mask>
<g mask="url(#mask5_0_34)">
<path d="M57.178 10.0989H-0.000213623V69.1484H57.178V10.0989Z" fill="white"/>
</g>
<mask id="mask6_0_34" style="mask-type:luminance" maskUnits="userSpaceOnUse" x="13" y="21" width="24" height="14">
<path d="M36.1186 30.3267L23.1087 34.0395L23.0493 34.0692L18.4157 29.1683L13.1285 23.5544L30.2969 21.6831L36.1186 30.3267Z" fill="white"/>
</mask>
<g mask="url(#mask6_0_34)">
<path d="M57.1782 10.0989H0V69.1484H57.1782V10.0989Z" fill="white"/>
</g>
<mask id="mask7_0_34" style="mask-type:luminance" maskUnits="userSpaceOnUse" x="37" y="28" width="14" height="11">
<path d="M47.8216 28.0098L50.1682 34.4256L42.8018 38.5246L37.6632 30.8018L47.8216 28.0098Z" fill="white"/>
</mask>
<g mask="url(#mask7_0_34)">
<path d="M57.178 10.0989H-0.000213623V69.1484H57.178V10.0989Z" fill="white"/>
</g>
<mask id="mask8_0_34" style="mask-type:luminance" maskUnits="userSpaceOnUse" x="48" y="42" width="7" height="11">
<path d="M52.3958 52.7821L48.5345 46.9306L52.8414 42.1484L54.5048 46.8118L52.3958 52.7821Z" fill="white"/>
</mask>
<g mask="url(#mask8_0_34)">
<path d="M57.1779 10.099H-0.000305176V69.1485H57.1779V10.099Z" fill="white"/>
</g>
<mask id="mask9_0_34" style="mask-type:luminance" maskUnits="userSpaceOnUse" x="24" y="10" width="21" height="11">
<path d="M30.6533 20.6435L24.2374 10.9307H41.7325L44.5543 19.0099L30.6533 20.6435Z" fill="white"/>
</mask>
<g mask="url(#mask9_0_34)">
<path d="M57.178 10.0989H-0.000213623V69.1484H57.178V10.0989Z" fill="white"/>
</g>
<mask id="mask10_0_34" style="mask-type:luminance" maskUnits="userSpaceOnUse" x="0" y="10" width="30" height="13">
<path d="M29.7029 20.7623L12.2078 22.7524H12.1781L0.861282 10.9307H23.0494L29.7029 20.7623Z" fill="white"/>
</mask>
<g mask="url(#mask10_0_34)">
<path d="M57.1782 10.0989H-4.57764e-05V69.1484H57.1782V10.0989Z" fill="white"/>
</g>
<mask id="mask11_0_34" style="mask-type:luminance" maskUnits="userSpaceOnUse" x="31" y="19" width="17" height="12">
<path d="M45.0296 19.9308L47.4652 27.0595L37.0692 30.0001L31.3365 21.4456L45.0296 19.9308Z" fill="white"/>
</mask>
<g mask="url(#mask11_0_34)">
<path d="M57.1782 10.099H-3.05176e-05V69.1485H57.1782V10.099Z" fill="white"/>
</g>
<mask id="mask12_0_34" style="mask-type:luminance" maskUnits="userSpaceOnUse" x="43" y="35" width="10" height="12">
<path d="M50.4058 35.3463L52.5147 41.079L47.9405 46.0988L43.2771 39.3265L50.4058 35.3463Z" fill="white"/>
</mask>
<g mask="url(#mask12_0_34)">
<path d="M57.1781 10.0989H-9.15527e-05V69.1484H57.1781V10.0989Z" fill="white"/>
</g>
<mask id="mask13_0_34" style="mask-type:luminance" maskUnits="userSpaceOnUse" x="45" y="18" width="12" height="9">
<path d="M45.9503 19.8416L56.2275 18.6534V24.6237L48.5345 26.8515L45.9503 19.8416Z" fill="white"/>
</mask>
<g mask="url(#mask13_0_34)">
<path d="M57.1782 10.099H-1.52588e-05V69.1485H57.1782V10.099Z" fill="white"/>
</g>
<mask id="mask14_0_34" style="mask-type:luminance" maskUnits="userSpaceOnUse" x="42" y="10" width="15" height="9">
<path d="M56.2277 10.9307V17.7326L45.6237 18.8911L42.7128 10.9307H56.2277Z" fill="white"/>
</mask>
<g mask="url(#mask14_0_34)">
<path d="M57.1782 10.0989H-6.10352e-05V69.1484H57.1782V10.0989Z" fill="white"/>
</g>
<mask id="mask15_0_34" style="mask-type:luminance" maskUnits="userSpaceOnUse" x="42" y="47" width="11" height="15">
<path d="M52.0394 53.8217L49.2474 61.1583L49.2176 61.188L47.0196 58.8415L42.2077 53.8217L47.8216 47.6434L52.0394 53.8217Z" fill="white"/>
</mask>
<g mask="url(#mask15_0_34)">
<path d="M57.178 10.099H-0.000228882V69.1485H57.178V10.099Z" fill="white"/>
</g>
<mask id="mask16_0_34" style="mask-type:luminance" maskUnits="userSpaceOnUse" x="51" y="32" width="6" height="9">
<path d="M51.3265 34.9008L56.2275 32.1979V36.8909L53.1978 40.2771L51.3265 34.9008Z" fill="white"/>
</mask>
<g mask="url(#mask16_0_34)">
<path d="M57.1778 10.099H-0.000366211V69.1485H57.1778V10.099Z" fill="white"/>
</g>
<mask id="mask17_0_34" style="mask-type:luminance" maskUnits="userSpaceOnUse" x="48" y="25" width="9" height="10">
<path d="M48.7721 27.6535L56.2276 25.5446V31.0396L50.9702 34.0693L48.7721 27.6535Z" fill="white"/>
</mask>
<g mask="url(#mask17_0_34)">
<path d="M57.178 10.099H-0.000183105V69.1485H57.178V10.099Z" fill="white"/>
</g>
<mask id="mask18_0_34" style="mask-type:luminance" maskUnits="userSpaceOnUse" x="57" y="0" width="64" height="40">
<path d="M57.297 37.2178V39.4456L58.6931 35.703L57.297 37.2178ZM57.297 31.604V35.8218L59.6436 33.2376L60.9208 29.4951L57.297 31.604ZM62.198 28.8119L61.3663 31.2773L64.8713 27.2971L62.198 28.8119ZM57.297 25.307V30.5644L61.396 28.2178L63.1485 23.6733L57.297 25.307ZM64.3069 23.4357L62.6733 27.5347L66.8911 25.1881L70.0396 21.802L64.3069 23.4357ZM71.7921 21.2079L69.5644 23.6733L70.3961 23.198L74.1386 20.4951L71.7921 21.2079ZM57.297 18.5347V24.2674L63.5941 22.5149L65.3465 17.7327L57.297 18.5644V18.5347ZM66.4159 17.4951L64.6634 22.2773L71.3168 20.2872L74.703 16.5446L66.4159 17.4654V17.4951ZM76.1287 16.4555L73.099 19.9604L76.8416 18.802L82.099 15.7723L76.1287 16.4852V16.4555ZM57.3267 10.9604V17.6139L65.7327 16.5743L67.8416 10.9604H57.3267ZM68.8812 10.9604L66.7723 16.5743L75.6535 15.5347L79.7525 10.9901H68.8812V10.9604ZM81.0297 10.9604L77.1683 15.3862L84.5347 14.4654L91.7822 10.9604H81.0297ZM57.297 0.980225V9.98022H68.1683L71.4357 0.980225H57.297ZM72.4753 0.980225L69.0891 9.98022H80.6733L88.7228 0.980225H72.4753ZM90 0.980225L81.8317 9.98022H94.099C97.4852 8.58418 101.109 7.18815 104.851 5.88121C109.752 4.24755 114.653 2.61389 120.149 0.980225H90Z" fill="white"/>
</mask>
<g mask="url(#mask18_0_34)">
<path d="M120.297 0.980225H119.614V39.3862H120.297V0.980225Z" fill="white"/>
<path d="M119.644 0.980225H118.96V39.3862H119.644V0.980225Z" fill="white"/>
<path d="M118.99 0.980225H118.307V39.3862H118.99V0.980225Z" fill="white"/>
<path d="M118.307 0.980225H117.624V39.3862H118.307V0.980225Z" fill="white"/>
<path d="M117.654 0.980225H116.97V39.3862H117.654V0.980225Z" fill="white"/>
<path d="M117 0.980225H116.317V39.3862H117V0.980225Z" fill="white"/>
<path d="M116.347 0.980225H115.663V39.3862H116.347V0.980225Z" fill="white"/>
<path d="M115.693 0.980225H115.01V39.3862H115.693V0.980225Z" fill="white"/>
<path d="M115.04 0.980225H114.357V39.3862H115.04V0.980225Z" fill="white"/>
<path d="M114.386 0.980225H113.703V39.3862H114.386V0.980225Z" fill="white"/>
<path d="M113.733 0.980225H113.05V39.3862H113.733V0.980225Z" fill="white"/>
<path d="M113.05 0.980225H112.366V39.3862H113.05V0.980225Z" fill="white"/>
<path d="M112.396 0.980225H111.713V39.3862H112.396V0.980225Z" fill="white"/>
<path d="M111.743 0.980225H111.06V39.3862H111.743V0.980225Z" fill="white"/>
<path d="M111.089 0.980225H110.406V39.3862H111.089V0.980225Z" fill="white"/>
<path d="M110.436 0.980225H109.753V39.3862H110.436V0.980225Z" fill="white"/>
<path d="M109.782 0.980225H109.099V39.3862H109.782V0.980225Z" fill="white"/>
<path d="M109.129 0.980225H108.446V39.3862H109.129V0.980225Z" fill="white"/>
<path d="M108.475 0.980225H107.792V39.3862H108.475V0.980225Z" fill="white"/>
<path d="M107.792 0.980225H107.109V39.3862H107.792V0.980225Z" fill="white"/>
<path d="M107.139 0.980225H106.456V39.3862H107.139V0.980225Z" fill="white"/>
<path d="M106.485 0.980225H105.802V39.3862H106.485V0.980225Z" fill="white"/>
<path d="M105.832 0.980225H105.149V39.3862H105.832V0.980225Z" fill="white"/>
<path d="M105.178 0.980225H104.495V39.3862H105.178V0.980225Z" fill="white"/>
<path d="M104.525 0.980225H103.842V39.3862H104.525V0.980225Z" fill="white"/>
<path d="M103.871 0.980225H103.188V39.3862H103.871V0.980225Z" fill="white"/>
<path d="M103.218 0.980225H102.535V39.3862H103.218V0.980225Z" fill="white"/>
<path d="M102.564 0.980225H101.881V39.3862H102.564V0.980225Z" fill="white"/>
<path d="M101.881 0.980225H101.198V39.3862H101.881V0.980225Z" fill="white"/>
<path d="M101.228 0.980225H100.545V39.3862H101.228V0.980225Z" fill="white"/>
<path d="M100.574 0.980225H99.8912V39.3862H100.574V0.980225Z" fill="white"/>
<path d="M99.9208 0.980225H99.2377V39.3862H99.9208V0.980225Z" fill="white"/>
<path d="M99.2674 0.980225H98.5843V39.3862H99.2674V0.980225Z" fill="white"/>
<path d="M98.6139 0.980225H97.9307V39.3862H98.6139V0.980225Z" fill="white"/>
<path d="M97.9605 0.980225H97.2773V39.3862H97.9605V0.980225Z" fill="white"/>
<path d="M97.3072 0.980225H96.624V39.3862H97.3072V0.980225Z" fill="white"/>
<path d="M96.6238 0.980225H95.9407V39.3862H96.6238V0.980225Z" fill="white"/>
<path d="M95.9704 0.980225H95.2873V39.3862H95.9704V0.980225Z" fill="white"/>
<path d="M95.3169 0.980225H94.6337V39.3862H95.3169V0.980225Z" fill="white"/>
<path d="M94.6635 0.980225H93.9803V39.3862H94.6635V0.980225Z" fill="white"/>
<path d="M94.01 0.980225H93.3268V39.3862H94.01V0.980225Z" fill="white"/>
<path d="M93.3565 0.980225H92.6734V39.3862H93.3565V0.980225Z" fill="white"/>
<path d="M92.703 0.980225H92.0199V39.3862H92.703V0.980225Z" fill="white"/>
<path d="M92.0496 0.980225H91.3664V39.3862H92.0496V0.980225Z" fill="white"/>
<path d="M91.3961 0.980225H90.7129V39.3862H91.3961V0.980225Z" fill="white"/>
<path d="M90.713 0.980225H90.0298V39.3862H90.713V0.980225Z" fill="white"/>
<path d="M90.0595 0.980225H89.3764V39.3862H90.0595V0.980225Z" fill="white"/>
<path d="M89.406 0.980225H88.7229V39.3862H89.406V0.980225Z" fill="white"/>
<path d="M88.7526 0.980225H88.0694V39.3862H88.7526V0.980225Z" fill="white"/>
<path d="M88.0991 0.980225H87.4159V39.3862H88.0991V0.980225Z" fill="white"/>
<path d="M87.4457 0.980225H86.7625V39.3862H87.4457V0.980225Z" fill="white"/>
<path d="M86.7921 0.980225H86.109V39.3862H86.7921V0.980225Z" fill="white"/>
<path d="M86.1387 0.980225H85.4556V39.3862H86.1387V0.980225Z" fill="white"/>
<path d="M85.4555 0.980225H84.7723V39.3862H85.4555V0.980225Z" fill="white"/>
<path d="M84.8021 0.980225H84.1189V39.3862H84.8021V0.980225Z" fill="white"/>
<path d="M84.1486 0.980225H83.4654V39.3862H84.1486V0.980225Z" fill="white"/>
<path d="M83.4952 0.980225H82.812V39.3862H83.4952V0.980225Z" fill="white"/>
<path d="M82.8416 0.980225H82.1585V39.3862H82.8416V0.980225Z" fill="white"/>
<path d="M82.1882 0.980225H81.505V39.3862H82.1882V0.980225Z" fill="white"/>
<path d="M81.5347 0.980225H80.8515V39.3862H81.5347V0.980225Z" fill="white"/>
<path d="M80.8813 0.980225H80.1981V39.3862H80.8813V0.980225Z" fill="white"/>
<path d="M80.1982 0.980225H79.515V39.3862H80.1982V0.980225Z" fill="white"/>
<path d="M79.5446 0.980225H78.8615V39.3862H79.5446V0.980225Z" fill="white"/>
<path d="M78.8912 0.980225H78.208V39.3862H78.8912V0.980225Z" fill="white"/>
<path d="M78.2377 0.980225H77.5545V39.3862H78.2377V0.980225Z" fill="white"/>
<path d="M77.5843 0.980225H76.9011V39.3862H77.5843V0.980225Z" fill="white"/>
<path d="M76.9308 0.980225H76.2476V39.3862H76.9308V0.980225Z" fill="white"/>
<path d="M76.2773 0.980225H75.5942V39.3862H76.2773V0.980225Z" fill="white"/>
<path d="M75.6238 0.980225H74.9407V39.3862H75.6238V0.980225Z" fill="white"/>
<path d="M74.9704 0.980225H74.2872V39.3862H74.9704V0.980225Z" fill="white"/>
<path d="M74.2873 0.980225H73.6041V39.3862H74.2873V0.980225Z" fill="white"/>
<path d="M73.6338 0.980225H72.9506V39.3862H73.6338V0.980225Z" fill="white"/>
<path d="M72.9803 0.980225H72.2972V39.3862H72.9803V0.980225Z" fill="white"/>
<path d="M72.3268 0.980225H71.6436V39.3862H72.3268V0.980225Z" fill="white"/>
<path d="M71.6734 0.980225H70.9902V39.3862H71.6734V0.980225Z" fill="white"/>
<path d="M71.0199 0.980225H70.3367V39.3862H71.0199V0.980225Z" fill="white"/>
<path d="M70.3665 0.980225H69.6833V39.3862H70.3665V0.980225Z" fill="white"/>
<path d="M69.7129 0.980225H69.0298V39.3862H69.7129V0.980225Z" fill="white"/>
<path d="M69.0298 0.980225H68.3466V39.3862H69.0298V0.980225Z" fill="white"/>
<path d="M68.3763 0.980225H67.6931V39.3862H68.3763V0.980225Z" fill="white"/>
<path d="M67.7229 0.980225H67.0397V39.3862H67.7229V0.980225Z" fill="white"/>
<path d="M67.0694 0.980225H66.3862V39.3862H67.0694V0.980225Z" fill="white"/>
<path d="M66.4159 0.980225H65.7328V39.3862H66.4159V0.980225Z" fill="white"/>
<path d="M65.7624 0.980225H65.0793V39.3862H65.7624V0.980225Z" fill="white"/>
<path d="M65.109 0.980225H64.4258V39.3862H65.109V0.980225Z" fill="white"/>
<path d="M64.4555 0.980225H63.7723V39.3862H64.4555V0.980225Z" fill="white"/>
<path d="M63.7724 0.980225H63.0892V39.3862H63.7724V0.980225Z" fill="white"/>
<path d="M63.1189 0.980225H62.4358V39.3862H63.1189V0.980225Z" fill="white"/>
<path d="M62.4654 0.980225H61.7823V39.3862H62.4654V0.980225Z" fill="white"/>
<path d="M61.812 0.980225H61.1288V39.3862H61.812V0.980225Z" fill="white"/>
<path d="M61.1585 0.980225H60.4753V39.3862H61.1585V0.980225Z" fill="white"/>
<path d="M60.5051 0.980225H59.8219V39.3862H60.5051V0.980225Z" fill="white"/>
<path d="M59.8515 0.980225H59.1684V39.3862H59.8515V0.980225Z" fill="white"/>
<path d="M59.1981 0.980225H58.515V39.3862H59.1981V0.980225Z" fill="white"/>
<path d="M58.5446 0.980225H57.8614V39.3862H58.5446V0.980225Z" fill="white"/>
<path d="M57.8615 0.980225H57.1784V39.3862H57.8615V0.980225Z" fill="white"/>
<path d="M57.3863 0.980225H57.1784V39.3862H57.3863V0.980225Z" fill="white"/>
</g>
<path d="M90.0595 37.4255C89.911 36.4156 89.6733 35.6433 89.3763 35.1681C88.9605 34.5443 88.4258 34.0691 87.7724 33.8017C86.911 33.4453 85.9308 33.2671 84.8912 33.2671C83.0793 33.2671 81.8021 33.5641 81.0595 34.1285C80.3169 34.6928 79.9308 35.376 79.9308 36.1186C79.9308 36.5344 80.0199 36.8909 80.1981 37.2176C80.3763 37.5443 80.7031 37.8413 81.1783 38.079C81.6535 38.3463 82.5446 38.673 83.8219 38.9998L89.3763 40.3661C91.2179 40.8413 92.406 41.1681 92.8516 41.3463C94.01 41.7324 94.9605 42.178 95.7328 42.7126C96.505 43.2473 97.1288 43.7819 97.5743 44.4057C98.0199 44.9998 98.3763 45.7126 98.6436 46.4849C98.8813 47.2572 99.0298 48.1186 99.0298 49.0394C99.0298 50.7027 98.7328 52.1879 98.109 53.5542C97.4852 54.9206 96.5941 56.0196 95.4357 56.881C94.2773 57.7423 92.8516 58.3958 91.1288 58.8413C89.406 59.2869 87.4159 59.4948 85.0991 59.4948C82.7823 59.4948 80.6733 59.2572 78.9209 58.7522C77.1684 58.2473 75.7427 57.5344 74.6733 56.5542C73.5743 55.6037 72.7724 54.5344 72.2377 53.376C71.7031 52.2176 71.3169 50.7027 71.109 48.8909H79.307C79.307 49.8413 79.4555 50.6136 79.7823 51.2077C80.2278 52.0097 80.911 52.6037 81.8318 52.9899C82.7526 53.376 83.911 53.5839 85.307 53.5839C87.3565 53.5839 88.8714 53.2275 89.8219 52.5443C90.505 52.0097 90.8615 51.3265 90.8615 50.4948C90.8615 49.8413 90.5941 49.277 90.0892 48.8314C89.5842 48.3562 88.307 47.881 86.2575 47.4057C81.7427 46.3661 78.8318 45.5938 77.5545 45.0592C75.7427 44.3166 74.3763 43.3067 73.4852 42.0592C72.5941 40.8116 72.1486 39.2671 72.1486 37.4255C72.1486 35.5839 72.6238 33.8612 73.604 32.2869C74.5842 30.7126 76.0397 29.4948 77.9407 28.6334C79.8714 27.772 82.2476 27.3562 85.0694 27.3562C86.703 27.3562 88.2476 27.5047 89.7328 27.8314C91.2179 28.1582 92.4357 28.6334 93.4456 29.2572C94.4258 29.881 95.2575 30.6235 95.8813 31.4552C96.505 32.2869 97.01 33.1186 97.307 33.98C97.604 34.8413 97.8417 35.9998 98.0199 37.4255H90.1486H90.0595Z" fill="white"/>
<path d="M122.822 40.6336C122.703 38.495 122.287 36.9207 121.574 35.9108C120.564 34.4554 119.02 33.7425 116.941 33.7425C115.485 33.7425 114.297 34.0692 113.347 34.693C112.396 35.3168 111.654 36.2376 111.119 37.4257C110.762 38.2277 110.525 39.3267 110.436 40.6633H122.852L122.822 40.6336ZM110.228 45.8613C110.287 48.1187 110.941 49.9009 112.218 51.1781C113.465 52.4554 115.099 53.1088 117.089 53.1088C118.455 53.1088 119.614 52.7821 120.535 52.1583C121.456 51.5346 122.109 50.6435 122.495 49.5445H130.663C130.248 51.5346 129.505 53.2276 128.436 54.6534C127.366 56.0791 125.762 57.2375 123.594 58.1286C121.456 59.0197 119.168 59.4653 116.733 59.4653C113.911 59.4653 111.416 58.8712 109.277 57.7128C107.139 56.5544 105.446 54.7128 104.168 52.188C102.921 49.6633 102.297 46.693 102.297 43.2772C102.297 38.9702 103.366 35.3465 105.475 32.4356C107.911 29.0494 111.594 27.3267 116.584 27.3267C118.693 27.3267 120.624 27.594 122.317 28.1583C124.01 28.7227 125.495 29.5841 126.743 30.7425C127.99 31.9009 128.911 33.297 129.564 34.8712C130.218 36.4455 130.634 38.2276 130.842 40.188C130.96 41.495 131.02 43.3663 131.02 45.8316H110.257L110.228 45.8613Z" fill="white"/>
<path d="M149.228 51.9505C151.188 51.9505 152.762 51.2377 154.04 49.7822C155.287 48.3565 155.911 46.1288 155.911 43.1288C155.911 40.1288 155.287 37.7822 154.01 36.2971C152.733 34.8119 151.129 34.0694 149.168 34.0694C147.208 34.0694 145.693 34.8119 144.475 36.2971C143.228 37.7822 142.604 40.0694 142.604 43.1585C142.604 46.2476 143.228 48.3565 144.446 49.8119C145.663 51.2377 147.267 51.9803 149.228 51.9803M155.911 28.2773H163.723V57.0298C163.723 59.8218 163.456 62.0199 162.891 63.6238C162.357 65.2278 161.406 66.5941 160.069 67.7228C158.733 68.8515 157.158 69.6832 155.347 70.2476C153.505 70.7822 151.366 71.0793 148.901 71.0793C144.416 71.0793 141.03 70.2773 138.743 68.703C136.456 67.1288 135.238 64.8713 135.059 61.9605H143.733C143.852 62.8515 144.267 63.5347 144.98 64.0397C145.931 64.6931 147.267 65.0496 148.99 65.0496C151.396 65.0496 153.119 64.4258 154.248 63.1783C155.347 61.9307 155.911 59.5842 155.911 56.1387C155.911 55.6931 155.911 54.9803 155.911 54.0298C154.901 55.6931 153.861 56.8218 152.733 57.4456C151.218 58.3367 149.376 58.7822 147.178 58.7822C144.772 58.7822 142.604 58.1882 140.614 57.0001C138.624 55.8119 137.109 54.0595 136.01 51.6832C134.941 49.3367 134.406 46.604 134.406 43.5149C134.406 40.7228 134.792 38.2872 135.594 36.1486C136.396 34.01 137.406 32.3169 138.654 31.0397C139.901 29.7624 141.208 28.8416 142.604 28.2773C144 27.7129 145.574 27.4159 147.327 27.4159C149.198 27.4159 150.832 27.8317 152.257 28.6634C153.654 29.4951 154.901 30.8317 155.941 32.6436V28.307L155.911 28.2773Z" fill="white"/>
<path d="M186.772 43.7822C186.089 44.1386 185.436 44.4059 184.782 44.6436C184.129 44.8812 183.297 45.0891 182.198 45.297C180.149 45.6832 178.871 45.9802 178.366 46.1881C177.505 46.5446 176.881 47.0198 176.436 47.6436C176.02 48.2673 175.782 49.0099 175.782 49.901C175.782 51.1188 176.168 52.0693 176.881 52.8119C177.624 53.5545 178.604 53.9406 179.762 53.9406C181.515 53.9406 183.089 53.3762 184.545 52.2475C186 51.1188 186.713 49.3366 186.713 46.8713V43.8119L186.772 43.7822ZM176.673 37.901H168.832C169.01 34.8119 170.228 32.2574 172.485 30.297C174.743 28.3366 178.188 27.3564 182.822 27.3564C184.812 27.3564 186.653 27.5644 188.287 27.9802C189.921 28.396 191.139 28.9307 191.941 29.5842C192.743 30.2376 193.337 31.0693 193.782 32.1089C194.376 33.4456 194.673 35.1089 194.673 37.099V52.604C194.673 54.4158 194.792 55.604 195.119 56.1683C195.446 56.7624 195.891 57.1485 196.485 57.3267V58.5743H187.782C187.307 57.4158 187.04 56.2574 187.04 55.0396C185.436 56.7327 183.921 57.8911 182.525 58.5446C181.129 59.198 179.465 59.4951 177.535 59.4951C175.604 59.4951 173.822 59.1089 172.366 58.3663C170.911 57.6238 169.812 56.4951 169.069 55.0396C168.356 53.5842 167.97 52.0396 167.97 50.3762C167.97 47.8515 168.624 45.7426 169.96 44.0198C171.297 42.297 173.733 41.198 177.297 40.6634L183.98 39.6535C185.05 39.505 185.792 39.2376 186.178 38.8218C186.564 38.4357 186.772 37.8713 186.772 37.1881C186.772 36.0891 186.416 35.2277 185.673 34.6337C184.931 34.0099 183.713 33.7129 181.99 33.7129C180.267 33.7129 178.931 34.0099 178.188 34.6337C177.446 35.2574 176.941 36.3267 176.673 37.901Z" fill="white"/>
<path d="M204.891 49.1881C204.98 50.4653 205.277 51.5346 205.782 52.4257C206.287 53.2871 207.119 53.9999 208.247 54.5643C209.376 55.1287 210.891 55.396 212.703 55.396C215.109 55.396 216.891 54.9207 218.049 53.9702C219.238 53.0197 219.832 51.891 219.832 50.6138C219.832 49.5445 219.386 48.6831 218.495 48.0296C217.604 47.3465 216.148 46.7821 214.158 46.3069L209.673 45.2079C206.346 44.4059 204.089 43.3663 202.871 42.0296C201.653 40.7227 201.059 39.0593 201.059 37.0395C201.059 35.4356 201.505 33.9207 202.366 32.4356C203.228 30.9801 204.535 29.8514 206.257 29.0494C207.98 28.2475 209.97 27.8613 212.257 27.8613C215.851 27.8613 218.614 28.7227 220.604 30.4752C222.594 32.198 223.604 34.4554 223.723 37.2178H218.941C218.762 35.5247 218.109 34.2178 217.01 33.3267C215.911 32.4356 214.247 31.99 212.02 31.99C209.941 31.99 208.396 32.4059 207.386 33.2673C206.376 34.0989 205.871 35.1386 205.871 36.3267C205.871 37.2772 206.168 38.0494 206.733 38.6435C207.594 39.4752 209.02 40.1287 210.98 40.6039L216.743 41.9999C219.772 42.7128 221.851 43.693 222.95 44.9405C224.049 46.1881 224.614 47.7326 224.614 49.6336C224.614 52.2178 223.634 54.5346 221.673 56.5544C219.713 58.5742 216.653 59.5841 212.495 59.5841C209.703 59.5841 207.356 59.1386 205.455 58.2178C203.554 57.297 202.158 55.9603 201.238 54.2376C200.554 52.9603 200.168 51.297 200.079 49.2772H204.861L204.891 49.1881Z" fill="white"/>
<path d="M251.168 43.6634C251.168 39.8911 250.337 37.0693 248.703 35.1683C247.04 33.2673 244.96 32.3169 242.465 32.3169C239.97 32.3169 237.861 33.2673 236.228 35.1683C234.594 37.0693 233.762 39.8911 233.762 43.6337C233.762 47.3763 234.594 50.2277 236.228 52.1287C237.861 54.0297 239.941 54.9802 242.465 54.9802C244.99 54.9802 247.04 54.0297 248.703 52.1287C250.366 50.2277 251.168 47.406 251.168 43.6337M256.277 43.6337C256.277 45.8317 256.01 47.9109 255.446 49.8713C255.03 51.3565 254.406 52.6634 253.663 53.8515C252.891 55.0099 251.941 56.0198 250.842 56.8812C249.743 57.7426 248.465 58.3961 247.01 58.8416C245.554 59.2871 244.04 59.5248 242.436 59.5248C239.673 59.5248 237.238 58.9307 235.158 57.7129C233.079 56.4951 231.446 54.6832 230.287 52.2772C229.129 49.8713 228.535 47.0198 228.535 43.6931C228.535 38.9406 229.723 35.1089 232.129 32.2277C234.535 29.3466 237.95 27.8911 242.376 27.8911C245.168 27.8911 247.634 28.5446 249.772 29.8218C251.911 31.099 253.545 32.9703 254.614 35.406C255.683 37.8416 256.218 40.604 256.218 43.7228" fill="white"/>
<path d="M267.208 17.6732H262.129V58.6039H267.208V17.6732Z" fill="white"/>
<path d="M293.168 43.4256C292.663 43.7821 292.099 44.0494 291.535 44.1979C290.673 44.4355 289.069 44.7326 286.663 45.0593C284.911 45.2969 283.723 45.5049 283.158 45.6534C282.03 45.9207 281.139 46.2771 280.485 46.7227C279.832 47.1682 279.327 47.6732 279 48.2375C278.673 48.8019 278.525 49.5148 278.525 50.3464C278.525 51.8613 279 53.0791 279.98 53.9999C280.96 54.9504 282.327 55.3959 284.109 55.3959C286.366 55.3959 288.446 54.7425 290.317 53.4058C292.188 52.0692 293.139 50.3464 293.139 48.1781V43.3959L293.168 43.4256ZM274.693 37.7227C274.812 36.0296 275.079 34.6336 275.554 33.5346C276 32.4355 276.683 31.4553 277.604 30.6237C278.525 29.792 279.743 29.1385 281.287 28.6336C282.832 28.1286 284.644 27.891 286.752 27.891C288.861 27.891 290.584 28.0989 292.099 28.5445C293.614 28.9603 294.802 29.5841 295.693 30.3563C296.584 31.1286 297.238 32.0197 297.653 33.0296C298.069 34.0395 298.277 35.1385 298.277 36.4157V53.0197C298.277 53.8811 298.426 54.4752 298.723 54.8019C299.02 55.1286 299.406 55.2771 299.941 55.2771C300.327 55.2771 300.891 55.2177 301.604 55.0692V58.6633C300.475 58.9306 299.525 59.0494 298.723 59.0494C297 59.0494 295.752 58.7227 294.95 58.0395C294.148 57.3563 293.703 56.2573 293.554 54.7425C292.04 56.3464 290.436 57.5643 288.772 58.3662C287.109 59.1682 285.178 59.5841 282.98 59.5841C280.069 59.5841 277.752 58.7821 276.059 57.1484C274.337 55.5148 273.505 53.4058 273.505 50.8514C273.505 49.3662 273.772 48.0296 274.337 46.8415C274.901 45.6534 275.673 44.6732 276.683 43.8712C277.277 43.3662 278.109 42.9207 279.148 42.4751C280.188 42.0593 281.317 41.7623 282.475 41.6435L290.554 40.6336C291.564 40.5148 292.307 40.1583 292.752 39.6534C293.198 39.1187 293.436 38.3167 293.436 37.2177C293.436 35.5544 292.901 34.3068 291.891 33.4157C290.851 32.5247 289.099 32.0791 286.663 32.0791C284.376 32.0791 282.683 32.5544 281.584 33.5049C280.485 34.4553 279.832 35.8811 279.653 37.8118H274.871L274.693 37.7227Z" fill="white"/>
<path d="M306.505 58.5742V28.7821H311.584V33.7128C312.445 31.7227 313.604 30.2673 315.03 29.2871C316.455 28.3366 317.911 27.8613 319.396 27.8613C319.841 27.8613 320.376 27.9207 321.03 28.0395V33.3267C320.168 33.2376 319.544 33.1782 319.188 33.1782C317.673 33.1782 316.307 33.5643 315 34.3663C313.723 35.1683 312.772 36.2079 312.148 37.5445C311.733 38.4059 311.554 39.7128 311.554 41.4653V58.5742H306.475H306.505Z" fill="white"/>
</g>
<defs>
<clipPath id="clip0_0_34">
<rect width="321" height="70.0396" fill="white" transform="translate(0 0.980225)"/>
</clipPath>
</defs>
</svg>
