<svg width="238" height="237" viewBox="0 0 238 237" fill="none" xmlns="http://www.w3.org/2000/svg">
<path d="M101 145V92L148 117.697L101 145Z" fill="white"/>
<path d="M99.7938 5.98316L98.1041 6.28271L100.458 19.5617L95.4542 20.4488L95.7384 22.0518L107.436 19.978L107.152 18.375L102.148 19.2621L99.7938 5.98316Z" fill="white"/>
<path d="M73.6668 13.5628L71.9156 14.2187L83.4589 26.0348L85.2101 25.379L86.152 8.88712L84.4008 9.54295L84.1829 13.2893L76.2921 16.2445L73.6668 13.5628ZM84.0945 15.0608L83.5835 23.7329L77.5223 17.5221L84.0945 15.0608Z" fill="white"/>
<path d="M64.3221 18.0539L62.8633 18.9575L69.3393 29.4122L54.896 23.8927L53.4372 24.7964L61.3961 37.645L62.8549 36.7414L56.3789 26.2867L70.8222 31.8062L72.281 30.9025L64.3221 18.0539Z" fill="white"/>
<path d="M46.2895 30.4523L44.979 31.5601L54.7363 43.1026L56.0468 41.9948L46.2895 30.4523Z" fill="white"/>
<path d="M35.0205 41.1477L33.8695 42.4205L43.8719 51.4661L40.4632 55.2354L41.6707 56.3273L49.6391 47.516L48.4316 46.424L45.0229 50.1933L35.0205 41.1477Z" fill="white"/>
<path d="M25.6916 52.7278L24.7206 54.1427L37.1829 62.6941L38.1538 61.2792L25.6916 52.7278Z" fill="white"/>
<path d="M19.3166 62.4193L18.5775 63.968L28.8821 68.8859L16.9554 69.41L24.0495 79.0118L13.7449 74.0939L13.0058 75.6426L26.646 82.1524L27.3851 80.6037L20.291 71.0019L32.2177 70.4778L32.9568 68.9291L19.3166 62.4193Z" fill="white"/>
<path d="M18.7722 109L20.3828 109.237L21.9654 98.5076L7.01313 96.3022L6.75952 98.0216L13.5718 99.0264L12.3744 107.145L13.985 107.382L15.1824 99.2639L20.1012 99.9894L18.7722 109Z" fill="white"/>
<path d="M21.9153 116.472C21.9083 117.021 22.3644 117.489 22.9144 117.496C23.4424 117.503 23.9322 117.047 23.9391 116.497C23.9463 115.925 23.4679 115.479 22.94 115.472C22.39 115.465 21.9225 115.9 21.9153 116.472ZM5.05344 115.4L5.03177 117.116L20.1446 117.307L20.1662 115.591L5.05344 115.4Z" fill="white"/>
<path d="M7.03616 127.884L20.4304 126.313L20.2306 124.609L5.2194 126.369L6.38 136.267L7.99692 136.078L7.03616 127.884Z" fill="white"/>
<path d="M8.01887 145.048L8.53263 146.685L19.4269 143.267L11.0519 151.774L22.7861 153.972L11.8918 157.39L12.4056 159.028L26.8263 154.503L26.3125 152.865L14.5783 150.668L22.9533 142.16L22.4396 140.523L8.01887 145.048Z" fill="white"/>
<path d="M31.7949 160.736C32.0391 161.229 32.6582 161.437 33.151 161.193C33.6241 160.959 33.8526 160.33 33.6083 159.837C33.3543 159.325 32.7252 159.145 32.2522 159.38C31.7594 159.624 31.5408 160.223 31.7949 160.736ZM16.2951 167.461L17.0572 168.998L30.599 162.286L29.8369 160.749L16.2951 167.461Z" fill="white"/>
<path d="M21.692 177.705L22.6714 179.114L32.77 172.095L28.02 186.81L28.9993 188.219L41.4103 179.593L40.4309 178.184L30.3324 185.203L35.0823 170.488L34.103 169.079L21.692 177.705Z" fill="white"/>
<path d="M47.9059 184.125C48.2826 184.526 48.9357 184.546 49.3364 184.169C49.7211 183.808 49.7573 183.14 49.3805 182.739C48.9887 182.322 48.3347 182.333 47.95 182.695C47.5493 183.071 47.5141 183.708 47.9059 184.125ZM35.0242 195.058L36.1996 196.308L47.2113 185.956L46.0359 184.706L35.0242 195.058Z" fill="white"/>
<path d="M62.8438 197.169C63.2943 197.485 63.9377 197.372 64.2533 196.921C64.5562 196.489 64.4555 195.827 64.005 195.512C63.5365 195.183 62.8985 195.327 62.5955 195.76C62.28 196.21 62.3753 196.841 62.8438 197.169ZM52.4597 210.497L53.8652 211.482L62.5367 199.103L61.1313 198.119L52.4597 210.497Z" fill="white"/>
<path d="M61.41 216.49L71.693 221.749L72.4343 220.3L64.2276 216.102L77.8761 209.468L78.4972 208.253L68.4297 203.104L67.6884 204.553L75.6601 208.631L62.0312 215.275L61.41 216.49Z" fill="white"/>
<path d="M82.1166 224.072L86.1445 211.201L84.5068 210.689L79.9926 225.113L89.5037 228.089L89.99 226.536L82.1166 224.072Z" fill="white"/>
<path d="M110.445 218.124L110.67 216.512L99.9273 215.017L97.8441 229.986L108.587 231.481L108.811 229.869L99.7899 228.614L100.515 223.406L108.642 224.537L108.867 222.924L100.739 221.793L101.424 216.869L110.445 218.124Z" fill="white"/>
<path d="M133.479 230.84L135.179 230.603L133.32 217.246L138.354 216.545L138.129 214.933L126.363 216.57L126.587 218.183L131.62 217.482L133.479 230.84Z" fill="white"/>
<path d="M159.87 224.236L161.644 223.646L150.548 211.409L148.774 211.999L147.219 228.445L148.994 227.855L149.351 224.119L157.346 221.459L159.87 224.236ZM149.505 222.352L150.338 213.705L156.164 220.137L149.505 222.352Z" fill="white"/>
<path d="M169.375 220.096L170.866 219.247L164.783 208.559L179.012 214.612L180.503 213.763L173.027 200.627L171.536 201.476L177.619 212.164L163.391 206.112L161.899 206.96L169.375 220.096Z" fill="white"/>
<path d="M187.856 208.377L189.207 207.319L179.886 195.421L178.535 196.48L187.856 208.377Z" fill="white"/>
<path d="M199.516 198.108L200.713 196.879L191.054 187.467L194.601 183.827L193.435 182.691L185.144 191.2L186.31 192.336L189.857 188.696L199.516 198.108Z" fill="white"/>
<path d="M209.269 186.882L210.292 185.505L198.156 176.496L197.133 177.874L209.269 186.882Z" fill="white"/>
<path d="M215.999 177.434L216.795 175.914L206.681 170.617L218.619 170.536L211.886 160.677L222.001 165.975L222.797 164.455L209.409 157.443L208.612 158.963L215.345 168.822L203.407 168.902L202.61 170.422L215.999 177.434Z" fill="white"/>
<path d="M218.275 130.906L216.674 130.609L214.694 141.273L229.554 144.033L229.871 142.324L223.101 141.066L224.599 132.998L222.999 132.701L221.5 140.769L216.612 139.861L218.275 130.906Z" fill="white"/>
<path d="M215.412 123.323C215.44 122.774 215.001 122.29 214.452 122.262C213.924 122.236 213.418 122.673 213.391 123.222C213.362 123.794 213.824 124.257 214.351 124.284C214.9 124.311 215.384 123.895 215.412 123.323ZM232.222 125.02L232.308 123.307L217.213 122.554L217.127 124.268L232.222 125.02Z" fill="white"/>
<path d="M230.705 112.472L217.262 113.543L217.398 115.254L232.464 114.053L231.672 104.118L230.049 104.248L230.705 112.472Z" fill="white"/>
<path d="M230.361 95.2834L229.909 93.6282L218.895 96.6393L227.581 88.4488L215.936 85.8164L226.95 82.8054L226.498 81.1501L211.919 85.1359L212.371 86.7911L224.015 89.4235L215.33 97.6139L215.782 99.2692L230.361 95.2834Z" fill="white"/>
<path d="M207.185 78.7221C206.959 78.2205 206.348 77.9889 205.847 78.2147C205.365 78.4314 205.113 79.0513 205.339 79.5529C205.574 80.0745 206.196 80.277 206.677 80.0603C207.179 79.8345 207.42 79.2436 207.185 78.7221ZM222.924 72.578L222.22 71.0132L208.438 77.2172L209.142 78.782L222.924 72.578Z" fill="white"/>
<path d="M217.911 62.1407L216.985 60.6961L206.632 67.3343L211.926 52.8067L211 51.3622L198.277 59.5204L199.203 60.9649L209.556 54.3267L204.262 68.8543L205.188 70.2989L217.911 62.1407Z" fill="white"/>
<path d="M191.955 54.7499C191.593 54.3355 190.941 54.2911 190.527 54.6526C190.129 54.9997 190.068 55.666 190.429 56.0805C190.805 56.5115 191.459 56.5249 191.857 56.1778C192.272 55.8162 192.331 55.1809 191.955 54.7499ZM205.234 44.3035L204.106 43.0104L192.717 52.9464L193.845 54.2394L205.234 44.3035Z" fill="white"/>
<path d="M177.512 41.1594C177.073 40.8273 176.426 40.9166 176.094 41.355C175.775 41.7759 175.851 42.4407 176.29 42.7728C176.745 43.1182 177.388 42.998 177.707 42.5771C178.039 42.1387 177.968 41.5047 177.512 41.1594ZM188.384 28.2265L187.016 27.1904L177.89 39.2384L179.258 40.2745L188.384 28.2265Z" fill="white"/>
<path d="M179.663 21.9057L169.582 16.2674L168.788 17.6882L176.833 22.1881L162.947 28.3107L162.281 29.5011L172.15 35.0213L172.945 33.6004L165.13 29.2294L178.997 23.0961L179.663 21.9057Z" fill="white"/>
<path d="M159.252 13.5596L154.749 26.2713L156.366 26.8444L161.414 12.5981L152.02 9.26992L151.476 10.8045L159.252 13.5596Z" fill="white"/>
<path d="M130.722 18.4494L130.438 20.0524L141.118 21.9457L143.756 7.0637L133.077 5.17043L132.792 6.77343L141.761 8.36332L140.843 13.5406L132.763 12.1082L132.478 13.7112L140.558 15.1436L139.691 20.0393L130.722 18.4494Z" fill="white"/>
</svg>
