<svg width="241" height="52" viewBox="0 0 241 52" fill="none" xmlns="http://www.w3.org/2000/svg">
<g clip-path="url(#clip0_0_343)">
<mask id="mask0_0_343" style="mask-type:luminance" maskUnits="userSpaceOnUse" x="41" y="32" width="2" height="4">
<path d="M41.7015 34.0268L42.2144 32.5493V35.5044L41.7015 34.0268Z" fill="white"/>
</mask>
<g mask="url(#mask0_0_343)">
<path d="M42.928 6.76978H-0.000167847V50.6103H42.928V6.76978Z" fill="url(#paint0_linear_0_343)"/>
</g>
<mask id="mask1_0_343" style="mask-type:luminance" maskUnits="userSpaceOnUse" x="37" y="39" width="6" height="12">
<path d="M39.4939 39.937L42.2145 43.9947V50.0812L37.4869 45.3178L37.5092 45.2517L39.4939 39.937Z" fill="white"/>
</mask>
<g mask="url(#mask1_0_343)">
<path d="M42.9282 6.77002H-1.90735e-05V50.6106H42.9282V6.77002Z" fill="url(#paint1_linear_0_343)"/>
</g>
<mask id="mask2_0_343" style="mask-type:luminance" maskUnits="userSpaceOnUse" x="17" y="22" width="15" height="10">
<path d="M31.5103 28.2272L24.5749 31.954L17.9294 25.0957L27.5631 22.4053L31.5103 28.2272Z" fill="white"/>
</mask>
<g mask="url(#mask2_0_343)">
<path d="M42.9281 6.77002H-0.000137329V50.6106H42.9281V6.77002Z" fill="url(#paint2_linear_0_343)"/>
</g>
<mask id="mask3_0_343" style="mask-type:luminance" maskUnits="userSpaceOnUse" x="39" y="35" width="4" height="8">
<path d="M41.3448 35.0635L42.2145 37.6657V42.7819L39.8507 39.2314L41.3448 35.0635Z" fill="white"/>
</mask>
<g mask="url(#mask3_0_343)">
<path d="M42.9281 6.77002H-9.53674e-05V50.6106H42.9281V6.77002Z" fill="url(#paint3_linear_0_343)"/>
</g>
<mask id="mask4_0_343" style="mask-type:luminance" maskUnits="userSpaceOnUse" x="40" y="27" width="3" height="6">
<path d="M40.2965 29.8592L42.2144 27.698V30.5648L41.3446 32.9906L40.2965 29.8592Z" fill="white"/>
</mask>
<g mask="url(#mask4_0_343)">
<path d="M42.9279 6.77002H-0.000244141V50.6106H42.9279V6.77002Z" fill="url(#paint4_linear_0_343)"/>
</g>
<mask id="mask5_0_343" style="mask-type:luminance" maskUnits="userSpaceOnUse" x="25" y="28" width="11" height="11">
<path d="M35.4797 34.0269L31.198 38.7682L31.1757 38.7903L27.6746 35.1516L25.11 32.4612L31.9562 28.8225L35.4797 34.0269Z" fill="white"/>
</mask>
<g mask="url(#mask5_0_343)">
<path d="M42.928 6.76978H-0.000156403V50.6103H42.928V6.76978Z" fill="url(#paint5_linear_0_343)"/>
</g>
<mask id="mask6_0_343" style="mask-type:luminance" maskUnits="userSpaceOnUse" x="9" y="15" width="19" height="10">
<path d="M27.1171 21.7877L17.3495 24.5442L17.3049 24.5663L13.8261 20.9276L9.85662 16.7597L22.7462 15.3704L27.1171 21.7877Z" fill="white"/>
</mask>
<g mask="url(#mask6_0_343)">
<path d="M42.9282 6.76978H-3.8147e-06V50.6103H42.9282V6.76978Z" fill="url(#paint6_linear_0_343)"/>
</g>
<mask id="mask7_0_343" style="mask-type:luminance" maskUnits="userSpaceOnUse" x="28" y="20" width="10" height="8">
<path d="M35.9035 20.0676L37.6652 24.831L32.1347 27.8742L28.2768 22.1406L35.9035 20.0676Z" fill="white"/>
</mask>
<g mask="url(#mask7_0_343)">
<path d="M42.928 6.76978H-0.000152588V50.6103H42.928V6.76978Z" fill="url(#paint7_linear_0_343)"/>
</g>
<mask id="mask8_0_343" style="mask-type:luminance" maskUnits="userSpaceOnUse" x="36" y="30" width="5" height="9">
<path d="M39.3377 38.4595L36.4386 34.1152L39.6722 30.5647L40.921 34.027L39.3377 38.4595Z" fill="white"/>
</mask>
<g mask="url(#mask8_0_343)">
<path d="M42.928 6.77002H-0.000221252V50.6106H42.928V6.77002Z" fill="url(#paint8_linear_0_343)"/>
</g>
<mask id="mask9_0_343" style="mask-type:luminance" maskUnits="userSpaceOnUse" x="18" y="7" width="16" height="8">
<path d="M23.0138 14.5986L18.197 7.38745H31.3319L33.4504 13.3858L23.0138 14.5986Z" fill="white"/>
</mask>
<g mask="url(#mask9_0_343)">
<path d="M42.928 6.76978H-0.000160217V50.6103H42.928V6.76978Z" fill="url(#paint9_linear_0_343)"/>
</g>
<mask id="mask10_0_343" style="mask-type:luminance" maskUnits="userSpaceOnUse" x="0" y="7" width="23" height="10">
<path d="M22.3003 14.6869L9.16537 16.1644H9.14307L0.646633 7.38745H17.305L22.3003 14.6869Z" fill="white"/>
</mask>
<g mask="url(#mask10_0_343)">
<path d="M42.9282 6.76978H-3.43323e-05V50.6103H42.9282V6.76978Z" fill="url(#paint10_linear_0_343)"/>
</g>
<mask id="mask11_0_343" style="mask-type:luminance" maskUnits="userSpaceOnUse" x="23" y="14" width="13" height="8">
<path d="M33.8073 14.0693L35.6359 19.362L27.8308 21.5452L23.5268 15.194L33.8073 14.0693Z" fill="white"/>
</mask>
<g mask="url(#mask11_0_343)">
<path d="M42.9282 6.76978H-2.28882e-05V50.6103H42.9282V6.76978Z" fill="url(#paint11_linear_0_343)"/>
</g>
<mask id="mask12_0_343" style="mask-type:luminance" maskUnits="userSpaceOnUse" x="32" y="25" width="8" height="9">
<path d="M37.8436 25.5146L39.4269 29.7708L35.9927 33.4977L32.4915 28.4697L37.8436 25.5146Z" fill="white"/>
</mask>
<g mask="url(#mask12_0_343)">
<path d="M42.9281 6.77002H-7.24792e-05V50.6106H42.9281V6.77002Z" fill="url(#paint12_linear_0_343)"/>
</g>
<mask id="mask13_0_343" style="mask-type:luminance" maskUnits="userSpaceOnUse" x="34" y="13" width="9" height="7">
<path d="M34.4985 14.0032L42.2144 13.1211V17.5537L36.4386 19.2076L34.4985 14.0032Z" fill="white"/>
</mask>
<g mask="url(#mask13_0_343)">
<path d="M42.9282 6.77002H-1.52588e-05V50.6106H42.9282V6.77002Z" fill="url(#paint13_linear_0_343)"/>
</g>
<mask id="mask14_0_343" style="mask-type:luminance" maskUnits="userSpaceOnUse" x="32" y="7" width="11" height="7">
<path d="M42.2145 7.38745V12.4375L34.2533 13.2975L32.0679 7.38745H42.2145Z" fill="white"/>
</mask>
<g mask="url(#mask14_0_343)">
<path d="M42.9281 6.76978H-4.57764e-05V50.6103H42.9281V6.76978Z" fill="url(#paint14_linear_0_343)"/>
</g>
<mask id="mask15_0_343" style="mask-type:luminance" maskUnits="userSpaceOnUse" x="31" y="34" width="9" height="11">
<path d="M39.0701 39.2315L36.9739 44.6785L36.9516 44.7005L35.3013 42.9584L31.6887 39.2315L35.9035 34.6445L39.0701 39.2315Z" fill="white"/>
</mask>
<g mask="url(#mask15_0_343)">
<path d="M42.928 6.77002H-0.000171661V50.6106H42.928V6.77002Z" fill="url(#paint15_linear_0_343)"/>
</g>
<mask id="mask16_0_343" style="mask-type:luminance" maskUnits="userSpaceOnUse" x="38" y="23" width="5" height="7">
<path d="M38.5348 25.1838L42.2144 23.177V26.6613L39.9398 29.1753L38.5348 25.1838Z" fill="white"/>
</mask>
<g mask="url(#mask16_0_343)">
<path d="M42.9279 6.77002H-0.000274658V50.6106H42.9279V6.77002Z" fill="url(#paint16_linear_0_343)"/>
</g>
<mask id="mask17_0_343" style="mask-type:luminance" maskUnits="userSpaceOnUse" x="36" y="18" width="7" height="7">
<path d="M36.6171 19.803L42.2145 18.2373V22.317L38.2673 24.5664L36.6171 19.803Z" fill="white"/>
</mask>
<g mask="url(#mask17_0_343)">
<path d="M42.9281 6.77002H-0.000133514V50.6106H42.9281V6.77002Z" fill="url(#paint17_linear_0_343)"/>
</g>
<mask id="mask18_0_343" style="mask-type:luminance" maskUnits="userSpaceOnUse" x="43" y="0" width="48" height="29">
<path d="M43.0174 26.9042V28.5581L44.0655 25.7795L43.0174 26.9042ZM43.0174 22.7362V25.8677L44.7791 23.9491L45.738 21.1705L43.0174 22.7362ZM46.697 20.6633L46.0726 22.4936L48.704 19.5386L46.697 20.6633ZM43.0174 18.0611V21.9644L46.0949 20.2222L47.4106 16.8482L43.0174 18.0611ZM48.2803 16.6718L47.0538 19.715L50.2204 17.9729L52.5843 15.4589L48.2803 16.6718ZM53.9 15.0178L52.2275 16.8482L52.8519 16.4953L55.6617 14.4885L53.9 15.0178ZM43.0174 13.0331V17.2892L47.7451 15.9881L49.0608 12.4377L43.0174 13.0551V13.0331ZM49.8636 12.2612L48.5479 15.8117L53.5432 14.3342L56.0854 11.5556L49.8636 12.2392V12.2612ZM57.1558 11.4894L54.8812 14.0916L57.691 13.2316L61.6382 10.9822L57.1558 11.5114V11.4894ZM43.0397 7.40967V12.3494L49.3507 11.5776L50.934 7.40967H43.0397ZM51.7145 7.40967L50.1312 11.5776L56.799 10.8058L59.8765 7.43172H51.7145V7.40967ZM60.8354 7.40967L57.9363 10.6955L63.4668 10.0119L68.9081 7.40967H60.8354ZM43.0174 0V6.68193H51.1793L53.6324 0H43.0174ZM54.4129 0L51.8706 6.68193H60.5678L66.6112 0H54.4129ZM67.5701 0L61.4375 6.68193H70.6475C73.1898 5.64546 75.9104 4.60899 78.7203 3.63868C82.3998 2.42578 86.0794 1.21289 90.205 0H67.5701Z" fill="white"/>
</mask>
<g mask="url(#mask18_0_343)">
<path d="M90.3166 0H89.8037V28.514H90.3166V0Z" fill="#173D70"/>
<path d="M89.8259 0H89.313V28.514H89.8259V0Z" fill="#173D73"/>
<path d="M89.3353 0H88.8224V28.514H89.3353V0Z" fill="#174073"/>
<path d="M88.8224 0H88.3095V28.514H88.8224V0Z" fill="#174073"/>
<path d="M88.3318 0H87.8189V28.514H88.3318V0Z" fill="#174073"/>
<path d="M87.8412 0H87.3282V28.514H87.8412V0Z" fill="#174073"/>
<path d="M87.3506 0H86.8377V28.514H87.3506V0Z" fill="#144278"/>
<path d="M86.8599 0H86.347V28.514H86.8599V0Z" fill="#144278"/>
<path d="M86.3694 0H85.8565V28.514H86.3694V0Z" fill="#134577"/>
<path d="M85.8789 0H85.366V28.514H85.8789V0Z" fill="#134579"/>
<path d="M85.3881 0H84.8752V28.514H85.3881V0Z" fill="#134579"/>
<path d="M84.8753 0H84.3624V28.514H84.8753V0Z" fill="#14477C"/>
<path d="M84.3846 0H83.8717V28.514H84.3846V0Z" fill="#14477C"/>
<path d="M83.894 0H83.3811V28.514H83.894V0Z" fill="#11477D"/>
<path d="M83.4034 0H82.8905V28.514H83.4034V0Z" fill="#124A7F"/>
<path d="M82.9128 0H82.3999V28.514H82.9128V0Z" fill="#124A7F"/>
<path d="M82.4222 0H81.9093V28.514H82.4222V0Z" fill="#124A81"/>
<path d="M81.9316 0H81.4187V28.514H81.9316V0Z" fill="#114D81"/>
<path d="M81.441 0H80.928V28.514H81.441V0Z" fill="#114D81"/>
<path d="M80.9281 0H80.4152V28.514H80.9281V0Z" fill="#124F84"/>
<path d="M80.4375 0H79.9246V28.514H80.4375V0Z" fill="#124F84"/>
<path d="M79.9469 0H79.434V28.514H79.9469V0Z" fill="#124F86"/>
<path d="M79.4563 0H78.9434V28.514H79.4563V0Z" fill="#124F86"/>
<path d="M78.9656 0H78.4527V28.514H78.9656V0Z" fill="#125286"/>
<path d="M78.4751 0H77.9622V28.514H78.4751V0Z" fill="#115289"/>
<path d="M77.9844 0H77.4715V28.514H77.9844V0Z" fill="#125489"/>
<path d="M77.4938 0H76.9809V28.514H77.4938V0Z" fill="#10548B"/>
<path d="M77.0032 0H76.4903V28.514H77.0032V0Z" fill="#10548B"/>
<path d="M76.4903 0H75.9774V28.514H76.4903V0Z" fill="#10548B"/>
<path d="M75.9997 0H75.4868V28.514H75.9997V0Z" fill="#0E578E"/>
<path d="M75.5091 0H74.9962V28.514H75.5091V0Z" fill="#0E578E"/>
<path d="M75.0184 0H74.5055V28.514H75.0184V0Z" fill="#10598E"/>
<path d="M74.5279 0H74.015V28.514H74.5279V0Z" fill="#0D5990"/>
<path d="M74.0372 0H73.5243V28.514H74.0372V0Z" fill="#0D5990"/>
<path d="M73.5467 0H73.0337V28.514H73.5467V0Z" fill="#0B5993"/>
<path d="M73.0562 0H72.5433V28.514H73.0562V0Z" fill="#0E5C93"/>
<path d="M72.5431 0H72.0302V28.514H72.5431V0Z" fill="#0E5C93"/>
<path d="M72.0526 0H71.5396V28.514H72.0526V0Z" fill="#0E5C96"/>
<path d="M71.5619 0H71.049V28.514H71.5619V0Z" fill="#0E5E95"/>
<path d="M71.0713 0H70.5584V28.514H71.0713V0Z" fill="#0B5E98"/>
<path d="M70.5807 0H70.0678V28.514H70.5807V0Z" fill="#0A6198"/>
<path d="M70.0901 0H69.5772V28.514H70.0901V0Z" fill="#0A6198"/>
<path d="M69.5995 0H69.0866V28.514H69.5995V0Z" fill="#0E619B"/>
<path d="M69.1089 0H68.596V28.514H69.1089V0Z" fill="#0E619B"/>
<path d="M68.6182 0H68.1053V28.514H68.6182V0Z" fill="#0C639D"/>
<path d="M68.1054 0H67.5925V28.514H68.1054V0Z" fill="#0C639D"/>
<path d="M67.6148 0H67.1019V28.514H67.6148V0Z" fill="#0E669D"/>
<path d="M67.1242 0H66.6112V28.514H67.1242V0Z" fill="#0866A0"/>
<path d="M66.6336 0H66.1207V28.514H66.6336V0Z" fill="#0866A0"/>
<path d="M66.1429 0H65.63V28.514H66.1429V0Z" fill="#0866A2"/>
<path d="M65.6524 0H65.1395V28.514H65.6524V0Z" fill="#0869A2"/>
<path d="M65.1617 0H64.6488V28.514H65.1617V0Z" fill="#0869A2"/>
<path d="M64.6711 0H64.1582V28.514H64.6711V0Z" fill="#0A6BA5"/>
<path d="M64.1582 0H63.6453V28.514H64.1582V0Z" fill="#0A6BA5"/>
<path d="M63.6676 0H63.1547V28.514H63.6676V0Z" fill="#0A6BA5"/>
<path d="M63.177 0H62.6641V28.514H63.177V0Z" fill="#0A6BA7"/>
<path d="M62.6864 0H62.1735V28.514H62.6864V0Z" fill="#0A6EA7"/>
<path d="M62.1957 0H61.6828V28.514H62.1957V0Z" fill="#0B6EAA"/>
<path d="M61.7052 0H61.1923V28.514H61.7052V0Z" fill="#0C70AA"/>
<path d="M61.2145 0H60.7016V28.514H61.2145V0Z" fill="#0C70AA"/>
<path d="M60.724 0H60.211V28.514H60.724V0Z" fill="#0470AC"/>
<path d="M60.2111 0H59.6982V28.514H60.2111V0Z" fill="#0673AC"/>
<path d="M59.7204 0H59.2075V28.514H59.7204V0Z" fill="#0873AF"/>
<path d="M59.2299 0H58.7169V28.514H59.2299V0Z" fill="#0873AF"/>
<path d="M58.7392 0H58.2263V28.514H58.7392V0Z" fill="#0873AF"/>
<path d="M58.2486 0H57.7357V28.514H58.2486V0Z" fill="#0675B1"/>
<path d="M57.758 0H57.2451V28.514H57.758V0Z" fill="#0675B1"/>
<path d="M57.2674 0H56.7545V28.514H57.2674V0Z" fill="#0A78B4"/>
<path d="M56.7768 0H56.2639V28.514H56.7768V0Z" fill="#0178B4"/>
<path d="M56.2862 0H55.7733V28.514H56.2862V0Z" fill="#0178B4"/>
<path d="M55.7733 0H55.2604V28.514H55.7733V0Z" fill="#0A79B7"/>
<path d="M55.2827 0H54.7698V28.514H55.2827V0Z" fill="#047AB7"/>
<path d="M54.7921 0H54.2792V28.514H54.7921V0Z" fill="#087BBA"/>
<path d="M54.3014 0H53.7885V28.514H54.3014V0Z" fill="#047DB9"/>
<path d="M53.8109 0H53.298V28.514H53.8109V0Z" fill="#047DB9"/>
<path d="M53.3202 0H52.8073V28.514H53.3202V0Z" fill="#0D7DBC"/>
<path d="M52.8297 0H52.3167V28.514H52.8297V0Z" fill="#0D7DBC"/>
<path d="M52.339 0H51.8261V28.514H52.339V0Z" fill="#0580BE"/>
<path d="M51.8261 0H51.3132V28.514H51.8261V0Z" fill="#0580BE"/>
<path d="M51.3355 0H50.8226V28.514H51.3355V0Z" fill="#0781BE"/>
<path d="M50.8449 0H50.332V28.514H50.8449V0Z" fill="#0682C2"/>
<path d="M50.3543 0H49.8413V28.514H50.3543V0Z" fill="#0682C2"/>
<path d="M49.8637 0H49.3508V28.514H49.8637V0Z" fill="#0682C2"/>
<path d="M49.373 0H48.8601V28.514H49.373V0Z" fill="#0585C4"/>
<path d="M48.8825 0H48.3696V28.514H48.8825V0Z" fill="#0585C4"/>
<path d="M48.3918 0H47.8789V28.514H48.3918V0Z" fill="#0587C7"/>
<path d="M47.8789 0H47.366V28.514H47.8789V0Z" fill="#0587C7"/>
<path d="M47.3884 0H46.8755V28.514H47.3884V0Z" fill="#0587C7"/>
<path d="M46.8977 0H46.3848V28.514H46.8977V0Z" fill="#068AC9"/>
<path d="M46.4071 0H45.8942V28.514H46.4071V0Z" fill="#068AC9"/>
<path d="M45.9165 0H45.4036V28.514H45.9165V0Z" fill="#0C89CA"/>
<path d="M45.4259 0H44.913V28.514H45.4259V0Z" fill="#0A8BCB"/>
<path d="M44.9353 0H44.4224V28.514H44.9353V0Z" fill="#0A8BCB"/>
<path d="M44.4447 0H43.9318V28.514H44.4447V0Z" fill="#148ACB"/>
<path d="M43.9541 0H43.4411V28.514H43.9541V0Z" fill="#0F8ECD"/>
<path d="M43.4412 0H42.9283V28.514H43.4412V0Z" fill="#108DCD"/>
<path d="M43.0844 0H42.9283V28.514H43.0844V0Z" fill="#108DCD"/>
</g>
<path d="M67.6148 27.0583C67.5033 26.3086 67.3249 25.7352 67.1018 25.3823C66.7896 24.9192 66.3882 24.5664 65.8976 24.3679C65.2509 24.1033 64.515 23.971 63.7345 23.971C62.3742 23.971 61.4153 24.1915 60.8577 24.6105C60.3002 25.0295 60.0103 25.5367 60.0103 26.088C60.0103 26.3968 60.0772 26.6614 60.211 26.904C60.3448 27.1466 60.5901 27.3671 60.9469 27.5435C61.3038 27.742 61.9728 27.9846 62.9317 28.2271L67.1018 29.2416C68.4845 29.5944 69.3765 29.837 69.711 29.9693C70.5807 30.256 71.2943 30.5868 71.8741 30.9837C72.4539 31.3807 72.9222 31.7776 73.2567 32.2407C73.5913 32.6818 73.8589 33.211 74.0596 33.7844C74.238 34.3578 74.3495 34.9973 74.3495 35.6809C74.3495 36.9159 74.1265 38.0185 73.6582 39.0329C73.1898 40.0473 72.5208 40.8633 71.6511 41.5028C70.7814 42.1423 69.711 42.6275 68.4176 42.9583C67.1242 43.289 65.63 43.4434 63.8906 43.4434C62.1512 43.4434 60.5678 43.267 59.2521 42.8921C57.9364 42.5172 56.866 41.9879 56.0632 41.2602C55.2381 40.5545 54.6359 39.7606 54.2345 38.9006C53.8331 38.0405 53.5432 36.9158 53.3871 35.5706H59.542C59.542 36.2763 59.6535 36.8497 59.8988 37.2907C60.2333 37.8862 60.7462 38.3272 61.4376 38.6139C62.1289 38.9006 62.9986 39.055 64.0467 39.055C65.5854 39.055 66.7227 38.7903 67.4364 38.2831C67.9493 37.8862 68.2169 37.379 68.2169 36.7615C68.2169 36.2763 68.0162 35.8573 67.6371 35.5265C67.258 35.1737 66.299 34.8209 64.7603 34.468C61.3707 33.6962 59.1852 33.1228 58.2263 32.7259C56.866 32.1745 55.8402 31.4248 55.1712 30.4985C54.5021 29.5723 54.1676 28.4256 54.1676 27.0583C54.1676 25.6911 54.5244 24.412 55.2604 23.2432C55.9963 22.0745 57.089 21.1703 58.5162 20.5308C59.9657 19.8913 61.7498 19.5825 63.8683 19.5825C65.0948 19.5825 66.2544 19.6928 67.3695 19.9354C68.4845 20.1779 69.3988 20.5308 70.157 20.9939C70.8929 21.457 71.5173 22.0083 71.9856 22.6258C72.4539 23.2432 72.833 23.8607 73.056 24.5002C73.279 25.1398 73.4575 25.9998 73.5913 27.0583H67.6817H67.6148Z" fill="#173D70"/>
<path d="M92.212 29.4401C92.1228 27.8523 91.8106 26.6835 91.2754 25.9337C90.5172 24.8532 89.3576 24.3239 87.7966 24.3239C86.7038 24.3239 85.8118 24.5665 85.0982 25.0296C84.3846 25.4927 83.8271 26.1763 83.4257 27.0584C83.1581 27.6538 82.9797 28.4698 82.9128 29.4622H92.2343L92.212 29.4401ZM82.7567 33.3214C82.8013 34.9974 83.2919 36.3205 84.2508 37.2688C85.1874 38.217 86.4139 38.7022 87.9081 38.7022C88.9339 38.7022 89.8036 38.4596 90.4949 37.9965C91.1862 37.5334 91.6768 36.8718 91.9667 36.0559H98.0993C97.7871 37.5334 97.2296 38.7904 96.4268 39.8489C95.624 40.9074 94.4198 41.7675 92.7918 42.4291C91.1862 43.0907 89.4691 43.4214 87.6405 43.4214C85.5219 43.4214 83.6487 42.9804 82.0431 42.1203C80.4374 41.2603 79.1663 39.893 78.2074 38.0186C77.2708 36.1441 76.8025 33.9388 76.8025 31.4028C76.8025 28.2052 77.6053 25.5147 79.1886 23.3536C81.0173 20.8396 83.7825 19.5605 87.529 19.5605C89.1123 19.5605 90.5618 19.759 91.8329 20.178C93.104 20.597 94.2191 21.2365 95.1557 22.0966C96.0923 22.9566 96.7836 23.9931 97.2742 25.1619C97.7648 26.3307 98.077 27.6538 98.2331 29.1093C98.3223 30.0796 98.3669 31.4689 98.3669 33.2993H82.779L82.7567 33.3214Z" fill="#173D70"/>
<path d="M112.037 37.8421C113.509 37.8421 114.691 37.3129 115.65 36.2323C116.586 35.1738 117.055 33.5198 117.055 31.2925C117.055 29.0652 116.586 27.3231 115.627 26.2204C114.669 25.1178 113.464 24.5665 111.992 24.5665C110.521 24.5665 109.383 25.1178 108.469 26.2204C107.532 27.3231 107.064 29.0211 107.064 31.3146C107.064 33.6081 107.532 35.1738 108.447 36.2544C109.361 37.3129 110.565 37.8642 112.037 37.8642M117.055 20.2662H122.92V41.6131C122.92 43.6861 122.719 45.318 122.295 46.5088C121.894 47.6997 121.18 48.7141 120.177 49.5521C119.173 50.3901 117.991 51.0075 116.631 51.4265C115.248 51.8235 113.643 52.044 111.792 52.044C108.424 52.044 105.882 51.4486 104.165 50.2798C102.448 49.111 101.534 47.435 101.4 45.2739H107.911C108.001 45.9354 108.313 46.4427 108.848 46.8176C109.562 47.3027 110.565 47.5673 111.859 47.5673C113.665 47.5673 114.958 47.1042 115.806 46.178C116.631 45.2518 117.055 43.5097 117.055 40.9516C117.055 40.6208 117.055 40.0915 117.055 39.3858C116.296 40.6208 115.516 41.4588 114.669 41.9219C113.531 42.5835 112.149 42.9142 110.498 42.9142C108.692 42.9142 107.064 42.4732 105.57 41.5911C104.076 40.709 102.939 39.4079 102.113 37.6437C101.311 35.9015 100.909 33.8727 100.909 31.5792C100.909 29.5063 101.199 27.698 101.801 26.1102C102.403 24.5224 103.162 23.2654 104.098 22.3171C105.035 21.3689 106.016 20.6852 107.064 20.2662C108.112 19.8472 109.294 19.6267 110.61 19.6267C112.015 19.6267 113.241 19.9354 114.312 20.5529C115.36 21.1704 116.296 22.1628 117.077 23.508V20.2883L117.055 20.2662Z" fill="#173D70"/>
<path d="M140.225 31.7776C139.712 32.0422 139.221 32.2407 138.731 32.4171C138.24 32.5935 137.616 32.7479 136.79 32.9023C135.252 33.189 134.293 33.4095 133.914 33.5639C133.267 33.8285 132.799 34.1813 132.464 34.6444C132.152 35.1075 131.974 35.6589 131.974 36.3204C131.974 37.2246 132.263 37.9303 132.799 38.4816C133.356 39.0329 134.092 39.3196 134.962 39.3196C136.278 39.3196 137.459 38.9006 138.552 38.0626C139.645 37.2246 140.18 35.9014 140.18 34.0711V31.7997L140.225 31.7776ZM132.643 27.4112H126.755C126.889 25.1177 127.803 23.2212 129.498 21.7657C131.193 20.3103 133.78 19.5825 137.259 19.5825C138.753 19.5825 140.135 19.7369 141.362 20.0456C142.589 20.3544 143.503 20.7513 144.105 21.2365C144.707 21.7216 145.153 22.3391 145.488 23.1109C145.934 24.1033 146.157 25.3382 146.157 26.8158V38.3272C146.157 39.6724 146.246 40.5545 146.491 40.9735C146.736 41.4146 147.071 41.7013 147.517 41.8336V42.7598H140.983C140.626 41.8997 140.425 41.0397 140.425 40.1355C139.221 41.3925 138.084 42.2526 137.036 42.7377C135.988 43.2229 134.739 43.4434 133.289 43.4434C131.84 43.4434 130.502 43.1567 129.409 42.6054C128.316 42.0541 127.491 41.2161 126.934 40.1355C126.398 39.055 126.109 37.9082 126.109 36.6733C126.109 34.7988 126.599 33.2331 127.603 31.954C128.606 30.675 130.435 29.859 133.111 29.4621L138.128 28.7123C138.931 28.602 139.489 28.4036 139.779 28.0948C140.069 27.8081 140.225 27.3891 140.225 26.8819C140.225 26.066 139.957 25.4265 139.4 24.9854C138.842 24.5223 137.928 24.3018 136.634 24.3018C135.341 24.3018 134.337 24.5223 133.78 24.9854C133.222 25.4485 132.843 26.2424 132.643 27.4112Z" fill="#173D70"/>
<path d="M153.828 35.7913C153.895 36.7395 154.118 37.5334 154.497 38.195C154.876 38.8345 155.5 39.3638 156.348 39.7828C157.195 40.2018 158.333 40.4003 159.693 40.4003C161.499 40.4003 162.837 40.0474 163.707 39.3417C164.599 38.6361 165.045 37.7981 165.045 36.8498C165.045 36.0559 164.71 35.4164 164.041 34.9312C163.372 34.424 162.28 34.005 160.786 33.6522L157.418 32.8362C154.921 32.2408 153.226 31.469 152.311 30.4766C151.397 29.5063 150.951 28.2713 150.951 26.7718C150.951 25.5809 151.286 24.4562 151.932 23.3536C152.579 22.273 153.56 21.435 154.854 20.8396C156.147 20.2442 157.641 19.9575 159.358 19.9575C162.057 19.9575 164.131 20.597 165.625 21.8981C167.119 23.1772 167.877 24.8532 167.966 26.9041H164.376C164.242 25.6471 163.751 24.6768 162.926 24.0152C162.101 23.3536 160.852 23.0228 159.18 23.0228C157.619 23.0228 156.459 23.3316 155.701 23.9711C154.943 24.5886 154.564 25.3604 154.564 26.2425C154.564 26.9482 154.787 27.5216 155.21 27.9626C155.857 28.5801 156.928 29.0652 158.399 29.4181L162.726 30.4545C165 30.9838 166.561 31.7115 167.386 32.6378C168.212 33.564 168.635 34.7107 168.635 36.1221C168.635 38.0406 167.899 39.7607 166.428 41.2603C164.956 42.7599 162.659 43.5097 159.537 43.5097C157.441 43.5097 155.679 43.1789 154.252 42.4953C152.824 41.8116 151.776 40.8193 151.085 39.5402C150.572 38.592 150.282 37.357 150.215 35.8574H153.806L153.828 35.7913Z" fill="#108DCD"/>
<path d="M188.572 31.6894C188.572 28.8887 187.947 26.7937 186.721 25.3824C185.472 23.971 183.911 23.2653 182.038 23.2653C180.165 23.2653 178.581 23.971 177.355 25.3824C176.128 26.7937 175.504 28.8887 175.504 31.6674C175.504 34.446 176.128 36.563 177.355 37.9744C178.581 39.3858 180.142 40.0914 182.038 40.0914C183.933 40.0914 185.472 39.3858 186.721 37.9744C187.97 36.563 188.572 34.468 188.572 31.6674M192.408 31.6674C192.408 33.2993 192.207 34.8429 191.783 36.2984C191.471 37.401 191.003 38.3713 190.445 39.2535C189.865 40.1135 189.152 40.8633 188.327 41.5028C187.501 42.1423 186.543 42.6275 185.45 42.9583C184.357 43.2891 183.22 43.4655 182.016 43.4655C179.942 43.4655 178.113 43.0244 176.552 42.1203C174.991 41.2161 173.764 39.8709 172.895 38.0847C172.025 36.2984 171.579 34.1814 171.579 31.7115C171.579 28.1831 172.471 25.3383 174.277 23.1992C176.084 21.0601 178.648 19.9795 181.971 19.9795C184.067 19.9795 185.918 20.4646 187.524 21.4129C189.129 22.3612 190.356 23.7505 191.159 25.5588C191.962 27.3671 192.363 29.418 192.363 31.7335" fill="#108DCD"/>
<path d="M200.614 12.3936H196.801V42.782H200.614V12.3936Z" fill="#108DCD"/>
<path d="M220.105 31.513C219.725 31.7776 219.302 31.9761 218.878 32.0864C218.231 32.2628 217.027 32.4833 215.221 32.7259C213.905 32.9023 213.013 33.0567 212.589 33.1669C211.742 33.3654 211.073 33.63 210.582 33.9608C210.092 34.2916 209.713 34.6665 209.467 35.0855C209.222 35.5045 209.11 36.0338 209.11 36.6513C209.11 37.7759 209.467 38.6801 210.203 39.3637C210.939 40.0694 211.965 40.4002 213.303 40.4002C214.998 40.4002 216.559 39.915 217.964 38.9227C219.369 37.9303 220.082 36.6512 220.082 35.0414V31.4909L220.105 31.513ZM206.234 27.2789C206.323 26.0219 206.524 24.9854 206.88 24.1695C207.215 23.3535 207.728 22.6258 208.419 22.0083C209.11 21.3909 210.025 20.9057 211.184 20.5308C212.344 20.1559 213.704 19.9795 215.288 19.9795C216.871 19.9795 218.164 20.1339 219.302 20.4646C220.439 20.7734 221.331 21.2365 222 21.8099C222.669 22.3832 223.16 23.0448 223.472 23.7946C223.784 24.5444 223.94 25.3603 223.94 26.3086V38.636C223.94 39.2755 224.052 39.7166 224.275 39.9591C224.498 40.2017 224.788 40.312 225.189 40.312C225.479 40.312 225.903 40.2679 226.438 40.1576V42.826C225.59 43.0244 224.877 43.1127 224.275 43.1127C222.981 43.1127 222.045 42.8701 221.443 42.3629C220.84 41.8557 220.506 41.0397 220.394 39.915C219.257 41.1059 218.053 42.01 216.804 42.6054C215.555 43.2009 214.106 43.5096 212.456 43.5096C210.27 43.5096 208.531 42.9142 207.26 41.7013C205.966 40.4884 205.342 38.9227 205.342 37.0261C205.342 35.9235 205.542 34.9311 205.966 34.049C206.39 33.1669 206.97 32.4392 207.728 31.8438C208.174 31.4689 208.798 31.1381 209.579 30.8073C210.359 30.4986 211.207 30.278 212.076 30.1898L218.142 29.4401C218.9 29.3518 219.458 29.0872 219.792 28.7123C220.127 28.3154 220.305 27.7199 220.305 26.904C220.305 25.6691 219.904 24.7429 219.146 24.0813C218.365 23.4197 217.049 23.0889 215.221 23.0889C213.504 23.0889 212.233 23.4417 211.407 24.1474C210.582 24.8531 210.092 25.9116 209.958 27.3451H206.368L206.234 27.2789Z" fill="#108DCD"/>
<path d="M230.117 42.7599V20.6411H233.931V24.3019C234.577 22.8244 235.447 21.7438 236.518 21.016C237.588 20.3104 238.681 19.9575 239.796 19.9575C240.13 19.9575 240.532 20.0016 241.022 20.0898V24.0152C240.376 23.949 239.907 23.9049 239.64 23.9049C238.502 23.9049 237.476 24.1916 236.495 24.787C235.536 25.3825 234.823 26.1543 234.354 27.1467C234.042 27.7862 233.908 28.7565 233.908 30.0576V42.7599H230.095H230.117Z" fill="#108DCD"/>
</g>
<defs>
<linearGradient id="paint0_linear_0_343" x1="-0.504156" y1="26.8674" x2="42.3571" y2="26.8674" gradientUnits="userSpaceOnUse">
<stop stop-color="#4892CE"/>
<stop offset="1" stop-color="#163D6E"/>
</linearGradient>
<linearGradient id="paint1_linear_0_343" x1="-0.504007" y1="26.8676" x2="42.3573" y2="26.8676" gradientUnits="userSpaceOnUse">
<stop stop-color="#188DCD"/>
<stop offset="1" stop-color="#163D6E"/>
</linearGradient>
<linearGradient id="paint2_linear_0_343" x1="-0.504125" y1="26.8676" x2="42.3572" y2="26.8676" gradientUnits="userSpaceOnUse">
<stop stop-color="#188DCD"/>
<stop offset="1" stop-color="#163D6E"/>
</linearGradient>
<linearGradient id="paint3_linear_0_343" x1="-0.504083" y1="26.8676" x2="42.3572" y2="26.8676" gradientUnits="userSpaceOnUse">
<stop stop-color="#4892CE"/>
<stop offset="1" stop-color="#163D6E"/>
</linearGradient>
<linearGradient id="paint4_linear_0_343" x1="-0.504232" y1="26.8676" x2="42.3571" y2="26.8676" gradientUnits="userSpaceOnUse">
<stop stop-color="#4892CE"/>
<stop offset="1" stop-color="#163D6E"/>
</linearGradient>
<linearGradient id="paint5_linear_0_343" x1="-0.504144" y1="26.8674" x2="42.3571" y2="26.8674" gradientUnits="userSpaceOnUse">
<stop stop-color="#188DCD"/>
<stop offset="1" stop-color="#163D6E"/>
</linearGradient>
<linearGradient id="paint6_linear_0_343" x1="-0.503992" y1="26.8674" x2="42.3573" y2="26.8674" gradientUnits="userSpaceOnUse">
<stop stop-color="#188DCD"/>
<stop offset="1" stop-color="#163D6E"/>
</linearGradient>
<linearGradient id="paint7_linear_0_343" x1="-0.504141" y1="26.8674" x2="42.3571" y2="26.8674" gradientUnits="userSpaceOnUse">
<stop stop-color="#4892CE"/>
<stop offset="1" stop-color="#163D6E"/>
</linearGradient>
<linearGradient id="paint8_linear_0_343" x1="-0.504209" y1="26.8676" x2="42.3571" y2="26.8676" gradientUnits="userSpaceOnUse">
<stop stop-color="#4892CE"/>
<stop offset="1" stop-color="#163D6E"/>
</linearGradient>
<linearGradient id="paint9_linear_0_343" x1="-0.504148" y1="26.8674" x2="42.3571" y2="26.8674" gradientUnits="userSpaceOnUse">
<stop stop-color="#4892CE"/>
<stop offset="1" stop-color="#163D6E"/>
</linearGradient>
<linearGradient id="paint10_linear_0_343" x1="-0.504022" y1="26.8674" x2="42.3573" y2="26.8674" gradientUnits="userSpaceOnUse">
<stop stop-color="#188DCD"/>
<stop offset="1" stop-color="#163D6E"/>
</linearGradient>
<linearGradient id="paint11_linear_0_343" x1="-0.504011" y1="26.8674" x2="42.3573" y2="26.8674" gradientUnits="userSpaceOnUse">
<stop stop-color="#4892CE"/>
<stop offset="1" stop-color="#163D6E"/>
</linearGradient>
<linearGradient id="paint12_linear_0_343" x1="-0.504061" y1="26.8676" x2="42.3572" y2="26.8676" gradientUnits="userSpaceOnUse">
<stop stop-color="#4892CE"/>
<stop offset="1" stop-color="#163D6E"/>
</linearGradient>
<linearGradient id="paint13_linear_0_343" x1="-0.504003" y1="26.8676" x2="42.3573" y2="26.8676" gradientUnits="userSpaceOnUse">
<stop stop-color="#4892CE"/>
<stop offset="1" stop-color="#163D6E"/>
</linearGradient>
<linearGradient id="paint14_linear_0_343" x1="-0.504034" y1="26.8674" x2="42.3573" y2="26.8674" gradientUnits="userSpaceOnUse">
<stop stop-color="#188DCD"/>
<stop offset="1" stop-color="#163D6E"/>
</linearGradient>
<linearGradient id="paint15_linear_0_343" x1="-0.50416" y1="26.8676" x2="42.3571" y2="26.8676" gradientUnits="userSpaceOnUse">
<stop stop-color="#188DCD"/>
<stop offset="1" stop-color="#163D6E"/>
</linearGradient>
<linearGradient id="paint16_linear_0_343" x1="-0.504263" y1="26.8676" x2="42.357" y2="26.8676" gradientUnits="userSpaceOnUse">
<stop stop-color="#4892CE"/>
<stop offset="1" stop-color="#163D6E"/>
</linearGradient>
<linearGradient id="paint17_linear_0_343" x1="-0.504122" y1="26.8676" x2="42.3572" y2="26.8676" gradientUnits="userSpaceOnUse">
<stop stop-color="#4892CE"/>
<stop offset="1" stop-color="#163D6E"/>
</linearGradient>
<clipPath id="clip0_0_343">
<rect width="241" height="52" fill="white"/>
</clipPath>
</defs>
</svg>
