<svg width="24" height="17" viewBox="0 0 24 17" fill="none" xmlns="http://www.w3.org/2000/svg">
<path d="M23.0898 2.5319C22.8232 1.53347 22.0403 0.749882 21.0458 0.484474C19.243 0 12.0192 0 12.0192 0C12.0192 0 4.79113 0 2.98835 0.484474C1.99386 0.749882 1.21096 1.53347 0.944349 2.5319C0.461914 4.33499 0.461914 8.10546 0.461914 8.10546C0.461914 8.10546 0.461914 11.8717 0.944349 13.679C1.21096 14.6732 1.99386 15.4273 2.98835 15.6928C4.79113 16.1772 12.0192 16.1772 12.0192 16.1772C12.0192 16.1772 19.2472 16.1772 21.05 15.6928C22.0445 15.4273 22.8274 14.6732 23.094 13.679C23.5765 11.8717 23.5765 8.10546 23.5765 8.10546C23.5765 8.10546 23.5722 4.33499 23.0898 2.5319ZM9.65357 11.5263V4.68465L15.6967 8.10546L9.65357 11.5263Z" fill="#A8A8A7"/>
</svg>
